<svg xmlns="http://www.w3.org/2000/svg" viewBox="0 0 520.92 454.1"><defs><style>.cls-1{fill:#4d803b;}.cls-2{fill:#6d9b50;}.cls-3{fill:#5c4629;}.cls-4{fill:#5b8f3f;}.cls-5{fill:#65a042;}.cls-6{fill:#559241;}.cls-7{fill:#6c8f3c;}.cls-8{fill:#8eb844;}.cls-9{fill:#97c64f;}.cls-10{fill:#84a93f;}.cls-11{fill:#9abc52;}.cls-12{fill:#639142;}.cls-13{fill:#fff;}.cls-14{fill:none;stroke:#fff;stroke-miterlimit:10;stroke-width:7px;}.cls-15,.cls-17{fill:#231f20;}.cls-16{fill:#d56e28;}.cls-17{font-size:18.45px;font-family:Muli, Muli;}</style></defs><title>vehikl_london</title><g id="Layer_2" data-name="Layer 2"><g id="trees_back" data-name="trees back"><g id="_Group_" data-name="&lt;Group&gt;"><path id="_Path_" data-name="&lt;Path&gt;" class="cls-1" d="M121.42,44.93s-3.36-5.42-6.23-5c0,0,1.92-7.23-5.76-8.58,0,0-3.83-17.61-18.22-2.71,0,0-12.95-16.93-20.14-6,0,0-12.95,2.82-9.11,14.11,0,0-13.43.9-12.47,10.38,0,0-7.19,1.35-4.79,13.09,0,0-8.15,4.51-8.15,12.64,0,0-11.51-8.58-16.79,0,0,0-21.1,3.61-16.78,25.73,0,0-5.76,6.77,3.83,12.64,0,0,2.4,10.38,8.16,10.83,0,0,2.39,9,15.82,5.42,0,0,4.32,7.67,8.15,10.83,0,0,0,10.84,3.84,13.54s7.67,9,13.43,9,7.67,11.29,21.1-5.41c0,0,11.5,8.12,20.61-8.13,0,0,12-.45,13.91-7.67,0,0,12-9,12-14.9,0,0,14.86-7.67,12-23.92,0,0,10.33-21.22.37-26.19,0,0,2.5-15.34-4.21-14.44C132,60.28,132,40.87,121.42,44.93Z"/><path id="_Path_2" data-name="&lt;Path&gt;" class="cls-2" d="M99.36,37.44s4.76-12.78-5-11.19c0,0-6,7.83-5,11.19C89.29,37.44,90.32,45.88,99.36,37.44Z"/><path id="_Path_3" data-name="&lt;Path&gt;" class="cls-2" d="M120.6,53.42s3.81-9.27-2.53-9-8,3.2-10.15,6.71c0,0-5.92,2.24-6.76,5.44,0,0-9.16-5.76-12.61,6.07,0,0-11.77,9.91,0,15.66,0,0,7.53,1.28,9.22-3.51s3.9-5.76,5.76.32c0,0-2.28,4.15,0,4.79,0,0-3.64,8.63,4.81,8.63s10.15-5.75,8-9c0,0,3.39-4.15,3.39-7,0,0,7.33-5.75,2-11.19C121.73,61.41,125.25,52.78,120.6,53.42Z"/><path id="_Path_4" data-name="&lt;Path&gt;" class="cls-3" d="M100.5,55.66s2.38-15.51,2.38-18.31,1-9.51,1.92-9.82-.73,9.87-1,14.06S100.5,55.66,100.5,55.66Z"/><polygon id="_Path_5" data-name="&lt;Path&gt;" class="cls-3" points="117.94 42.14 116.43 47.24 116.05 49.34 120.94 38.81 117.94 42.14"/><path id="_Path_6" data-name="&lt;Path&gt;" class="cls-3" d="M96.49,79.63s4.67-16.24,4-20.78a19.19,19.19,0,0,0-2,8.63S93,55.77,93.19,55.66s-.24.11-.24.11,1.86,10.73,3.81,13S96.49,79.63,96.49,79.63Z"/><path id="_Path_7" data-name="&lt;Path&gt;" class="cls-3" d="M112.79,72.6s-2.93,17.26-6.74,24.94c0,0-2.53-2.88-1.89-9,0,0-2.29,5.12,1.89,12.47C106.05,101.05,114.71,80.59,112.79,72.6Z"/><path id="_Path_8" data-name="&lt;Path&gt;" class="cls-2" d="M79,29.44s1.68-9.62-3.11-9l-4.8.6S58.6,24,62,36c0,0-8.63,6-9.59,13.18,0,0-7.67,3.12-7.67,11.75,0,0-10.79,3.84-7.68,14.63,0,0-8.15-3.12-9.35-2.16s-6.23-.72-6.71,2.16c0,0-4.67-.16-5.38.15S6.81,80.35,8.49,87.79s4.08,3.75,4.08-1.12c0,0,5,2.55,5.27-1.76,0,0,15.83,7.43,15.11-4.08,0,0,4.79-3.83,6.23-4.79s4.8,2.87,6.24-3.12c0,0,7.91-2.16,4.31,4.8,0,0-1.92,10.55,4.56,10.31s7.19-2.64,8.39-3.12,3.84-2.72,3.84,1.76,4.55,8.55,9.59,3.51c0,0,8.39-3.83,4.31-9.83,0,0,4.56-10.07-5-8.39,0,0-5.88,7-3.54-1.28a7.84,7.84,0,0,0,2.1-9s8.63,1.34,8.87-5.21c0,0,7.94-11.33,6.37-12.77,0,0,1.78-12.47-9-5.52C80.18,38.15,86.9,28.4,79,29.44Z"/><path id="_Path_9" data-name="&lt;Path&gt;" class="cls-1" d="M66.28,44.46h7.91s-2.16,3.84-4,4.88-6.59,6.32-5.39,4.16C66.53,50.45,69.39,45.73,66.28,44.46Z"/><path id="_Path_10" data-name="&lt;Path&gt;" class="cls-3" d="M77.77,67.43s-.62-14,.58-16.7c0,0,.85,5.88,0,8.68,0,0,5.83-7.32,5.68-7.43s-.81,2-.81,2-3.58,4.5-3.85,6.53A56.72,56.72,0,0,1,77.77,67.43Z"/><polygon id="_Path_11" data-name="&lt;Path&gt;" class="cls-3" points="19.83 78.02 19.34 72.73 18.91 70.64 18.29 82.23 19.83 78.02"/><path id="_Path_12" data-name="&lt;Path&gt;" class="cls-3" d="M93,95s-2.94,7-2.46,9.83-2.4,8.87-4.07,2.64-9.7-25.09-8.81-31,1.61-5.8,1.61-5.8c-.35,9.42-.78,7.86-.48,9,.72,2.64,6.5,16.75,6.5,16.75s4.08-5.8,4-7.8c0,0,.58-.55-3.49,9.76l2.39,5.51S90.38,92.82,93,95Z"/><path id="_Path_13" data-name="&lt;Path&gt;" class="cls-2" d="M105.67,106.17s-1.27-7.68-6-2.56.87,8.66,3.81,6.57S105.67,106.17,105.67,106.17Z"/><path id="_Path_14" data-name="&lt;Path&gt;" class="cls-3" d="M116.05,92.1s-2.94,17.29-6.14,18.08C109.91,110.18,117.71,113.81,116.05,92.1Z"/><polygon id="_Path_15" data-name="&lt;Path&gt;" class="cls-3" points="125.06 125.81 132.86 119.61 135.67 116.86 116.57 128.29 125.06 125.81"/><path id="_Path_16" data-name="&lt;Path&gt;" class="cls-3" d="M77.61,129.82s-9.92-29.09-11.19-28.93-14.69-8.66-16-10.48-1,5.53,13.58,13.2L50,104.89l13.82,1.43s4.22,4,4.55,6.88-10.54-.32-10.54-.32.85,3.2,11.62,4.64l8.19,13.9"/><path id="_Path_17" data-name="&lt;Path&gt;" class="cls-2" d="M50.43,132.12s8.34,5.55,9.28-.73-1.55-8.5-4.59-11.27c0,0-1-6.24-4-7.7,0,0,7.44-7.84-3.48-13.56,0,0-7.4-13.48-15.35-3.08,0,0-2.74,7.14,1.63,9.74s4.87,5-1.45,5.58c0,0-3.62-3.06-4.7-.95,0,0-7.75-5.27-9.41,3s3.64,11.09,7.19,9.64c0,0,3.41,4.14,6.23,4.7,0,0,4.2,8.33,10.59,4.14C42.38,131.65,50.15,136.8,50.43,132.12Z"/></g><g id="_Group_2" data-name="&lt;Group&gt;"><path id="_Path_18" data-name="&lt;Path&gt;" class="cls-4" d="M177.51,111.2s-4.23-5.78-7.85-5.3c0,0,2.42-7.7-7.25-9.14,0,0-4.83-18.77-23-2.89,0,0-16.31-18.05-25.38-6.38,0,0-16.31,3-11.48,15,0,0-16.91,1-15.71,11.07,0,0-9.06,1.45-6,14,0,0-10.27,4.81-10.27,13.47,0,0-14.5-9.14-21.15,0,0,0-26.58,3.85-21.14,27.43,0,0-7.25,7.22,4.83,13.48,0,0,3,11.07,10.27,11.55,0,0,3,9.63,19.94,5.78,0,0,5.44,8.18,10.27,11.55,0,0,0,11.55,4.84,14.43s9.66,9.63,16.91,9.63,9.67,12,26.59-5.78c0,0,14.5,8.67,26-8.66,0,0,15.1-.48,17.52-8.18,0,0,15.1-9.63,15.1-15.88,0,0,18.73-8.18,15.11-25.51,0,0,13-22.62.47-27.91,0,0,3.15-16.36-5.3-15.4C190.81,127.56,190.81,106.86,177.51,111.2Z"/><path id="_Path_19" data-name="&lt;Path&gt;" class="cls-5" d="M149.72,103.2s6-13.61-6.37-11.92c0,0-7.53,8.35-6.32,11.92C137,103.2,138.32,112.21,149.72,103.2Z"/><path id="_Path_20" data-name="&lt;Path&gt;" class="cls-5" d="M176.48,120.25s4.8-9.89-3.19-9.55-10.13,3.41-12.79,7.16c0,0-7.46,2.39-8.52,5.79,0,0-11.54-6.13-15.89,6.48,0,0-14.82,10.56,0,16.7,0,0,9.5,1.36,11.63-3.75s4.91-6.13,7.25.34c0,0-2.88,4.43,0,5.11,0,0-4.59,9.21,6.06,9.21s12.79-6.14,10.12-9.55c0,0,4.27-4.43,4.27-7.5,0,0,9.24-6.13,2.49-11.92C177.91,128.77,182.34,119.56,176.48,120.25Z"/><path id="_Path_21" data-name="&lt;Path&gt;" class="cls-5" d="M146.1,148.19S152,130.87,151.17,126a18.06,18.06,0,0,0-2.5,9.2s-7-12.49-6.73-12.61l-.3.12s2.34,11.44,4.81,13.85S146.1,148.19,146.1,148.19Z"/><path id="_Path_22" data-name="&lt;Path&gt;" class="cls-3" d="M166.64,140.69s-3.7,18.41-8.49,26.59c0,0-3.19-3.07-2.39-9.54,0,0-2.89,5.45,2.39,13.29C158.15,171,169.05,149.22,166.64,140.69Z"/><path id="_Path_23" data-name="&lt;Path&gt;" class="cls-5" d="M124,94.68s2.12-10.26-3.93-9.63l-6,.64s-15.71,3.2-11.48,16c0,0-10.87,6.39-12.08,14.06,0,0-9.67,3.32-9.67,12.52,0,0-13.59,4.09-9.66,15.6,0,0-10.28-3.33-11.79-2.3s-7.85-.77-8.46,2.3c0,0-5.88-.17-6.78.16s-11,5-8.92,12.87,5.13,4,5.13-1.19c0,0,6.35,2.73,6.65-1.87,0,0,19.94,7.92,19-4.35,0,0,6-4.09,7.85-5.11s6,3.07,7.86-3.32c0,0,10-2.31,5.44,5.11,0,0-2.42,11.24,5.74,11s9.06-2.81,10.57-3.32,4.83-2.9,4.83,1.87,5.74,9.12,12.09,3.75c0,0,10.57-4.09,5.43-10.48,0,0,5.74-10.74-6.34-9,0,0-7.41,7.5-4.46-1.36A7.68,7.68,0,0,0,117.7,129s10.87,1.43,11.18-5.55c0,0,10-12.09,8-13.62,0,0,2.25-13.29-11.35-5.88C125.55,104,134,93.58,124,94.68Z"/><path id="_Path_24" data-name="&lt;Path&gt;" class="cls-6" d="M108,110.69h10s-2.72,4.09-5,5.2-8.31,6.74-6.8,4.44C108.35,117.08,112,112.05,108,110.69Z"/><path id="_Path_25" data-name="&lt;Path&gt;" class="cls-3" d="M122.51,135.18s-.77-14.88.73-17.8c0,0,1.07,6.26,0,9.25,0,0,7.36-7.8,7.17-7.92s-1,2.17-1,2.17-4.52,4.79-4.85,7A54.12,54.12,0,0,1,122.51,135.18Z"/><polygon id="_Path_26" data-name="&lt;Path&gt;" class="cls-3" points="49.51 146.48 48.89 140.84 48.34 138.61 47.57 150.97 49.51 146.48"/><path id="_Path_27" data-name="&lt;Path&gt;" class="cls-3" d="M141.64,164.55s-3.7,7.42-3.1,10.48-3,9.46-5.13,2.81-12.23-26.75-11.1-33.05,2-6.18,2-6.18c-.44,10-1,8.38-.6,9.58.91,2.81,8.18,17.85,8.18,17.85s5.15-6.17,5-8.3c0,0,.74-.6-4.4,10.39l3,5.88S138.4,162.25,141.64,164.55Z"/><path id="_Path_28" data-name="&lt;Path&gt;" class="cls-5" d="M157.67,176.48s-1.61-8.18-7.6-2.73,1.1,9.24,4.81,7S157.67,176.48,157.67,176.48Z"/><path id="_Path_29" data-name="&lt;Path&gt;" class="cls-3" d="M170.74,161.48S167,179.92,163,180.76C163,180.76,172.83,184.63,170.74,161.48Z"/><polygon id="_Path_30" data-name="&lt;Path&gt;" class="cls-3" points="182.09 197.42 191.93 190.81 195.47 187.88 171.41 200.07 182.09 197.42"/><path id="_Path_31" data-name="&lt;Path&gt;" class="cls-3" d="M122.31,201.7s-12.5-31-14.09-30.84-18.52-9.23-20.13-11.18-1.23,5.89,17.11,14.07l-17.71,1.37,17.41,1.52s5.32,4.27,5.73,7.34-13.27-.34-13.27-.34,1.07,3.41,14.63,4.94l10.32,14.83"/><path id="_Path_32" data-name="&lt;Path&gt;" class="cls-5" d="M88.07,204.15s10.51,5.92,11.69-.78-2-9.06-5.78-12c0,0-1.3-6.66-5-8.21,0,0,9.38-8.36-4.37-14.46,0,0-9.33-14.37-19.35-3.28,0,0-3.45,7.6,2,10.38s6.14,5.28-1.82,6c0,0-4.57-3.26-5.92-1,0,0-9.76-5.62-11.86,3.22s4.59,11.82,9.07,10.28c0,0,4.29,4.4,7.84,5,0,0,5.29,8.87,13.34,4.41C77.92,203.65,87.71,209.14,88.07,204.15Z"/></g><g id="_Group_3" data-name="&lt;Group&gt;"><path id="_Path_33" data-name="&lt;Path&gt;" class="cls-4" d="M42.88,194.77s4.47-7.22,8.31-6.62c0,0-2.56-9.63,7.67-11.43,0,0,5.11-23.46,24.28-3.61,0,0,17.26-22.57,26.85-8,0,0,17.25,3.77,12.14,18.81,0,0,17.9,1.2,16.62,13.84,0,0,9.58,1.8,6.39,17.44,0,0,10.86,6,10.86,16.85,0,0,15.34-11.43,22.37,0,0,0,28.12,4.81,22.37,34.29,0,0,7.67,9-5.11,16.85,0,0-3.2,13.84-10.87,14.44,0,0-3.19,12-21.09,7.22,0,0-5.75,10.23-10.86,14.44,0,0,0,14.44-5.12,18.05s-10.22,12-17.89,12-10.23,15-28.12-7.22c0,0-15.34,10.83-27.49-10.83,0,0-16-.6-18.53-10.23,0,0-16-12-16-19.85,0,0-19.81-10.23-16-31.89,0,0-13.76-28.27-.49-34.89,0,0-3.34-20.46,5.61-19.26C28.82,215.22,28.82,189.35,42.88,194.77Z"/><path id="_Path_34" data-name="&lt;Path&gt;" class="cls-5" d="M72.28,184.78s-6.34-17,6.73-14.91c0,0,8,10.43,6.69,14.91C85.7,184.78,84.33,196,72.28,184.78Z"/><path id="_Path_35" data-name="&lt;Path&gt;" class="cls-5" d="M44,206.08s-5.07-12.35,3.38-11.93,10.71,4.26,13.52,8.95c0,0,7.89,3,9,7.24,0,0,12.2-7.67,16.81,8.1,0,0,15.67,13.21,0,20.88,0,0-10,1.7-12.3-4.69s-5.2-7.67-7.67.43c0,0,3,5.54,0,6.39,0,0,4.85,11.5-6.42,11.5S46.79,245.28,49.6,241c0,0-4.5-5.54-4.5-9.37,0,0-9.78-7.67-2.64-14.92C42.46,216.73,37.77,205.23,44,206.08Z"/><polygon id="_Path_36" data-name="&lt;Path&gt;" class="cls-3" points="47.52 191.05 49.53 197.84 50.04 200.64 43.52 186.61 47.52 191.05"/><path id="_Path_37" data-name="&lt;Path&gt;" class="cls-5" d="M76.11,241s-6.23-21.65-5.37-27.69a25.55,25.55,0,0,1,2.65,11.49s7.43-15.6,7.12-15.76l.31.16s-2.47,14.3-5.08,17.31S76.11,241,76.11,241Z"/><path id="_Path_38" data-name="&lt;Path&gt;" class="cls-3" d="M54.38,231.65s3.91,23,9,33.23c0,0,3.37-3.83,2.52-11.93,0,0,3,6.82-2.52,16.62C63.37,269.57,51.83,242.3,54.38,231.65Z"/><path id="_Path_39" data-name="&lt;Path&gt;" class="cls-5" d="M99.44,174.13s-2.24-12.84,4.15-12l6.4.79s16.61,4,12.14,20c0,0,11.5,8,12.78,17.58,0,0,10.23,4.15,10.23,15.66,0,0,14.38,5.11,10.22,19.49,0,0,10.87-4.16,12.47-2.88s8.31-1,8.94,2.88c0,0,6.23-.22,7.18.21s11.68,6.18,9.44,16.09-5.43,5-5.43-1.49c0,0-6.71,3.4-7-2.35,0,0-21.09,9.91-20.13-5.43,0,0-6.39-5.11-8.31-6.39s-6.39,3.83-8.31-4.16c0,0-10.55-2.87-5.75,6.39,0,0,2.55,14.07-6.07,13.75s-9.59-3.52-11.19-4.16-5.11-3.62-5.11,2.35-6.07,11.39-12.78,4.68c0,0-11.19-5.11-5.76-13.1,0,0-6.07-13.42,6.71-11.18,0,0,7.84,9.37,4.72-1.71a10.48,10.48,0,0,1-2.8-12s-11.5,1.78-11.82-6.94c0,0-10.59-15.11-8.49-17,0,0-2.38-16.62,12-7.35C97.84,185.74,88.89,172.74,99.44,174.13Z"/><path id="_Path_40" data-name="&lt;Path&gt;" class="cls-6" d="M116.38,194.14H105.83s2.88,5.11,5.27,6.5,8.79,8.42,7.19,5.55C116,202.12,112.22,195.83,116.38,194.14Z"/><path id="_Path_41" data-name="&lt;Path&gt;" class="cls-3" d="M101.06,224.75s.82-18.6-.77-22.25c0,0-1.14,7.83,0,11.56,0,0-7.78-9.74-7.58-9.9s1.08,2.71,1.08,2.71,4.78,6,5.13,8.7A76.87,76.87,0,0,0,101.06,224.75Z"/><path id="_Path_42" data-name="&lt;Path&gt;" class="cls-3" d="M80.82,261.47s3.92,9.27,3.28,13.11,3.2,11.82,5.43,3.51,12.93-33.44,11.74-41.33S99.12,229,99.12,229c.47,12.55,1,10.48.64,12-1,3.52-8.65,22.32-8.65,22.32s-5.45-7.73-5.27-10.39c0,0-.78-.74,4.65,13L87.3,273.3S84.26,258.6,80.82,261.47Z"/><path id="_Path_43" data-name="&lt;Path&gt;" class="cls-5" d="M63.87,276.39s1.7-10.23,8-3.41-1.16,11.54-5.09,8.75S63.87,276.39,63.87,276.39Z"/><path id="_Path_44" data-name="&lt;Path&gt;" class="cls-3" d="M50,257.64s3.92,23,8.18,24.09C58.22,281.73,47.83,286.57,50,257.64Z"/><polygon id="_Path_45" data-name="&lt;Path&gt;" class="cls-3" points="38.03 302.57 27.63 294.3 23.88 290.64 49.34 305.88 38.03 302.57"/><path id="_Path_46" data-name="&lt;Path&gt;" class="cls-3" d="M101.27,307.92s13.22-38.78,14.91-38.56,19.58-11.54,21.29-14,1.3,7.37-18.1,17.6l18.74,1.7-18.42,1.91s-5.63,5.34-6.07,9.17,14-.43,14-.43-1.13,4.26-15.48,6.18l-10.92,18.54"/><path id="_Path_47" data-name="&lt;Path&gt;" class="cls-5" d="M137.49,311s-11.11,7.41-12.36-1,2.07-11.34,6.11-15c0,0,1.37-8.32,5.33-10.27,0,0-9.92-10.45,4.63-18.07,0,0,9.86-18,20.47-4.11,0,0,3.64,9.51-2.18,13s-6.5,6.6,1.93,7.43c0,0,4.83-4.06,6.27-1.25,0,0,10.32-7,12.54,4s-4.86,14.76-9.59,12.84c0,0-4.54,5.51-8.3,6.27,0,0-5.6,11.09-14.11,5.52C148.23,310.36,137.88,317.22,137.49,311Z"/></g><g id="_Group_4" data-name="&lt;Group&gt;"><path id="_Path_48" data-name="&lt;Path&gt;" class="cls-1" d="M219.42,37.49s-3.35-5.42-6.23-5c0,0,1.92-7.23-5.76-8.58,0,0-3.83-17.61-18.22-2.71,0,0-13-16.93-20.14-6,0,0-12.95,2.82-9.11,14.11,0,0-13.43.9-12.47,10.38,0,0-7.19,1.35-4.79,13.09,0,0-8.15,4.51-8.15,12.64,0,0-11.51-8.58-16.79,0,0,0-21.1,3.61-16.78,25.73,0,0-5.76,6.77,3.84,12.64,0,0,2.39,10.38,8.15,10.83,0,0,2.39,9,15.82,5.42,0,0,4.32,7.67,8.15,10.83,0,0,0,10.84,3.84,13.54s7.67,9,13.43,9,7.67,11.29,21.1-5.41c0,0,11.5,8.12,20.61-8.13,0,0,12-.45,13.91-7.67,0,0,12-9,12-14.9,0,0,14.86-7.67,12-23.92,0,0,10.33-21.22.37-26.19,0,0,2.5-15.34-4.21-14.44C230,52.84,230,33.43,219.42,37.49Z"/><path id="_Path_49" data-name="&lt;Path&gt;" class="cls-2" d="M197.36,30s4.76-12.78-5.05-11.19c0,0-6,7.83-5,11.19C187.29,30,188.32,38.44,197.36,30Z"/><path id="_Path_50" data-name="&lt;Path&gt;" class="cls-2" d="M218.6,46s3.81-9.27-2.53-8.95-8,3.2-10.15,6.71c0,0-5.92,2.24-6.76,5.44,0,0-9.16-5.76-12.61,6.07,0,0-11.77,9.91,0,15.66,0,0,7.53,1.28,9.22-3.51s3.9-5.76,5.76.32c0,0-2.28,4.15,0,4.79,0,0-3.64,8.63,4.81,8.63s10.15-5.75,8-9c0,0,3.38-4.15,3.38-7,0,0,7.33-5.75,2-11.19C219.73,54,223.25,45.34,218.6,46Z"/><path id="_Path_51" data-name="&lt;Path&gt;" class="cls-3" d="M198.5,48.22s2.38-15.51,2.38-18.31,1-9.51,1.92-9.83-.73,9.88-1,14.07S198.5,48.22,198.5,48.22Z"/><polygon id="_Path_52" data-name="&lt;Path&gt;" class="cls-3" points="215.94 34.7 214.43 39.8 214.05 41.9 218.94 31.37 215.94 34.7"/><path id="_Path_53" data-name="&lt;Path&gt;" class="cls-3" d="M194.49,72.19s4.67-16.24,4-20.78a19.19,19.19,0,0,0-2,8.63S191,48.33,191.19,48.22s-.24.11-.24.11,1.86,10.73,3.81,13S194.49,72.19,194.49,72.19Z"/><path id="_Path_54" data-name="&lt;Path&gt;" class="cls-3" d="M210.79,65.16s-2.93,17.26-6.74,24.94c0,0-2.53-2.88-1.89-9,0,0-2.29,5.12,1.89,12.47C204.05,93.61,212.71,73.15,210.79,65.16Z"/><path id="_Path_55" data-name="&lt;Path&gt;" class="cls-2" d="M177,22s1.68-9.62-3.11-9l-4.8.6s-12.47,3-9.11,15c0,0-8.63,6-9.59,13.18,0,0-7.67,3.12-7.67,11.75,0,0-10.79,3.84-7.67,14.63,0,0-8.16-3.12-9.36-2.16s-6.23-.72-6.71,2.16c0,0-4.67-.16-5.38.15s-8.76,4.64-7.09,12.08,4.08,3.75,4.08-1.12c0,0,5,2.55,5.27-1.76,0,0,15.83,7.43,15.11-4.08,0,0,4.79-3.83,6.23-4.79s4.8,2.87,6.24-3.12c0,0,7.91-2.16,4.31,4.8,0,0-1.92,10.54,4.56,10.31s7.19-2.64,8.39-3.12,3.84-2.72,3.84,1.76,4.55,8.55,9.59,3.51c0,0,8.39-3.83,4.31-9.83,0,0,4.56-10.07-5-8.39,0,0-5.88,7-3.54-1.28a7.84,7.84,0,0,0,2.1-9s8.63,1.34,8.87-5.21c0,0,7.94-11.33,6.37-12.77,0,0,1.78-12.47-9-5.52C178.18,30.71,184.9,21,177,22Z"/><path id="_Path_56" data-name="&lt;Path&gt;" class="cls-1" d="M164.28,37h7.91s-2.16,3.84-4,4.88-6.59,6.32-5.39,4.16C164.53,43,167.39,38.29,164.28,37Z"/><path id="_Path_57" data-name="&lt;Path&gt;" class="cls-3" d="M175.77,60s-.62-14,.58-16.7c0,0,.85,5.88,0,8.68,0,0,5.83-7.32,5.68-7.43s-.81,2-.81,2-3.58,4.5-3.85,6.53A56.72,56.72,0,0,1,175.77,60Z"/><polygon id="_Path_58" data-name="&lt;Path&gt;" class="cls-3" points="117.83 70.58 117.34 65.3 116.91 63.2 116.29 74.8 117.83 70.58"/><path id="_Path_59" data-name="&lt;Path&gt;" class="cls-3" d="M191,87.54s-2.94,6.95-2.46,9.83-2.4,8.87-4.07,2.64-9.7-25.09-8.81-31,1.61-5.8,1.61-5.8c-.35,9.42-.78,7.86-.48,9,.72,2.64,6.5,16.75,6.5,16.75s4.08-5.8,3.95-7.8c0,0,.58-.55-3.49,9.75l2.39,5.52S188.38,85.38,191,87.54Z"/><path id="_Path_60" data-name="&lt;Path&gt;" class="cls-2" d="M203.67,98.73s-1.27-7.68-6-2.56.87,8.66,3.81,6.57S203.67,98.73,203.67,98.73Z"/><path id="_Path_61" data-name="&lt;Path&gt;" class="cls-3" d="M214.05,84.66s-2.94,17.29-6.14,18.08C207.91,102.74,215.71,106.37,214.05,84.66Z"/><polygon id="_Path_62" data-name="&lt;Path&gt;" class="cls-3" points="168.89 18.68 164.76 13.49 162.84 11.57 169.85 23.92 168.89 18.68"/><polygon id="_Path_63" data-name="&lt;Path&gt;" class="cls-3" points="223.06 118.37 230.86 112.17 233.67 109.42 214.57 120.86 223.06 118.37"/><path id="_Path_64" data-name="&lt;Path&gt;" class="cls-3" d="M175.61,122.38s-9.92-29.09-11.19-28.93-14.69-8.66-16-10.48-1,5.53,13.58,13.2L148,97.45l13.82,1.43s4.22,4,4.55,6.88-10.54-.32-10.54-.32.85,3.2,11.62,4.64l8.19,13.9"/><path id="_Path_65" data-name="&lt;Path&gt;" class="cls-2" d="M148.43,124.68s8.34,5.55,9.28-.73-1.55-8.5-4.59-11.27c0,0-1-6.24-4-7.7,0,0,7.44-7.84-3.48-13.56,0,0-7.4-13.48-15.35-3.08,0,0-2.74,7.14,1.63,9.74s4.87,5-1.45,5.58c0,0-3.62-3.06-4.7-1,0,0-7.75-5.27-9.41,3s3.64,11.08,7.19,9.64c0,0,3.41,4.14,6.23,4.7,0,0,4.2,8.33,10.59,4.14C140.38,124.21,148.15,129.36,148.43,124.68Z"/></g><g id="_Group_5" data-name="&lt;Group&gt;"><path id="_Path_66" data-name="&lt;Path&gt;" class="cls-7" d="M305,73.19s-4.22-5.79-7.83-5.31c0,0,2.41-7.71-7.22-9.16,0,0-4.81-18.8-22.86-2.89,0,0-16.24-18.09-25.27-6.39,0,0-16.24,3-11.43,15.07,0,0-16.85,1-15.64,11.09,0,0-9,1.44-6,14,0,0-10.23,4.82-10.23,13.5,0,0-14.44-9.16-21.06,0,0,0-26.47,3.85-21.05,27.48,0,0-7.22,7.23,4.81,13.5,0,0,3,11.08,10.23,11.57,0,0,3,9.64,19.85,5.78,0,0,5.42,8.2,10.23,11.57,0,0,0,11.57,4.81,14.47s9.63,9.64,16.85,9.64,9.63,12,26.47-5.79c0,0,14.44,8.68,25.87-8.68,0,0,15.05-.48,17.45-8.19,0,0,15-9.64,15-15.91,0,0,18.66-8.2,15.05-25.55,0,0,13-22.66.46-28,0,0,3.15-16.39-5.28-15.42C318.25,89.58,318.25,68.85,305,73.19Z"/><path id="_Path_67" data-name="&lt;Path&gt;" class="cls-8" d="M277.34,65.18s6-13.64-6.34-11.94c0,0-7.5,8.35-6.3,11.94C264.7,65.18,266,74.2,277.34,65.18Z"/><path id="_Path_68" data-name="&lt;Path&gt;" class="cls-8" d="M304,82.25s4.77-9.9-3.18-9.56-10.08,3.42-12.73,7.17c0,0-7.43,2.39-8.49,5.81,0,0-11.49-6.15-15.82,6.48,0,0-14.76,10.59,0,16.73,0,0,9.45,1.37,11.57-3.75s4.89-6.15,7.22.34c0,0-2.86,4.44,0,5.12,0,0-4.56,9.22,6.05,9.22s12.73-6.15,10.07-9.56c0,0,4.25-4.44,4.25-7.51,0,0,9.2-6.15,2.48-11.95C305.41,90.79,309.82,81.57,304,82.25Z"/><path id="_Path_69" data-name="&lt;Path&gt;" class="cls-3" d="M273.73,110.25s5.86-17.35,5.06-22.19a18.12,18.12,0,0,0-2.49,9.21s-7-12.51-6.71-12.63l-.3.12s2.33,11.46,4.79,13.88S273.73,110.25,273.73,110.25Z"/><path id="_Path_70" data-name="&lt;Path&gt;" class="cls-9" d="M294.19,102.74s-3.68,18.43-8.46,26.63c0,0-3.18-3.07-2.37-9.56,0,0-2.88,5.46,2.37,13.31C285.73,133.12,296.59,111.27,294.19,102.74Z"/><path id="_Path_71" data-name="&lt;Path&gt;" class="cls-8" d="M251.77,56.64s2.1-10.28-3.91-9.64l-6,.63s-15.64,3.21-11.43,16c0,0-10.83,6.41-12,14.09,0,0-9.63,3.33-9.63,12.54,0,0-13.54,4.1-9.63,15.63,0,0-10.23-3.33-11.73-2.31s-7.82-.77-8.42,2.31c0,0-5.86-.18-6.76.16s-11,5-8.89,12.89,5.12,4,5.12-1.19c0,0,6.32,2.73,6.62-1.88,0,0,19.85,7.94,18.95-4.35,0,0,6-4.1,7.82-5.12s6,3.07,7.82-3.33c0,0,9.93-2.31,5.42,5.12,0,0-2.41,11.27,5.71,11s9-2.82,10.53-3.33,4.82-2.9,4.82,1.88,5.71,9.13,12,3.76c0,0,10.53-4.1,5.41-10.5,0,0,5.72-10.76-6.31-9,0,0-7.38,7.52-4.44-1.36A7.72,7.72,0,0,0,245.45,91s10.83,1.43,11.13-5.56c0,0,10-12.11,8-13.64,0,0,2.24-13.32-11.3-5.89C253.27,66,261.7,55.53,251.77,56.64Z"/><path id="_Path_72" data-name="&lt;Path&gt;" class="cls-7" d="M235.82,72.68h9.93s-2.71,4.1-5,5.21-8.27,6.75-6.77,4.45C236.15,79.08,239.74,74,235.82,72.68Z"/><path id="_Path_73" data-name="&lt;Path&gt;" class="cls-3" d="M250.24,97.21s-.77-14.91.73-17.83c0,0,1.07,6.27,0,9.26,0,0,7.32-7.8,7.14-7.93s-1,2.18-1,2.18-4.5,4.8-4.83,7A53,53,0,0,1,250.24,97.21Z"/><polygon id="_Path_74" data-name="&lt;Path&gt;" class="cls-3" points="177.55 108.53 176.93 102.88 176.39 100.65 175.62 113.03 177.55 108.53"/><path id="_Path_75" data-name="&lt;Path&gt;" class="cls-3" d="M269.29,126.64s-3.68,7.42-3.08,10.5-3,9.47-5.12,2.81-12.17-26.79-11-33.11,2-6.19,2-6.19c-.45,10.06-1,8.39-.6,9.6.9,2.82,8.14,17.88,8.14,17.88s5.13-6.19,5-8.32c0,0,.74-.6-4.38,10.41l3,5.89S266.06,124.33,269.29,126.64Z"/><path id="_Path_76" data-name="&lt;Path&gt;" class="cls-8" d="M285.26,138.59s-1.61-8.2-7.57-2.73,1.09,9.24,4.78,7S285.26,138.59,285.26,138.59Z"/><path id="_Path_77" data-name="&lt;Path&gt;" class="cls-3" d="M298.27,123.56s-3.68,18.47-7.69,19.31C290.58,142.87,300.35,146.75,298.27,123.56Z"/><polygon id="_Path_78" data-name="&lt;Path&gt;" class="cls-3" points="309.58 159.57 319.37 152.94 322.9 150 298.93 162.22 309.58 159.57"/><path id="_Path_79" data-name="&lt;Path&gt;" class="cls-3" d="M250.05,163.85S237.6,132.78,236,133s-18.44-9.24-20-11.19-1.22,5.9,17,14.1l-17.64,1.36,17.34,1.53s5.29,4.28,5.71,7.35-13.22-.34-13.22-.34,1.06,3.41,14.57,5l10.28,14.85"/><path id="_Path_80" data-name="&lt;Path&gt;" class="cls-8" d="M216,166.3s10.46,5.94,11.64-.77-2-9.09-5.76-12c0,0-1.29-6.67-5-8.22,0,0,9.34-8.38-4.36-14.48,0,0-9.29-14.41-19.27-3.3,0,0-3.43,7.62,2.05,10.4s6.11,5.29-1.82,6c0,0-4.55-3.26-5.9-1,0,0-9.72-5.62-11.8,3.23s4.57,11.84,9,10.29c0,0,4.28,4.42,7.82,5,0,0,5.27,8.9,13.28,4.43C205.84,165.81,215.59,171.31,216,166.3Z"/></g><g id="_Group_6" data-name="&lt;Group&gt;"><path id="_Path_81" data-name="&lt;Path&gt;" class="cls-10" d="M257.81,290.86s-2.77-4.47-5.14-4.1c0,0,1.58-5.95-4.75-7.07,0,0-3.16-14.52-15-2.23,0,0-10.68-14-16.61-4.94,0,0-10.67,2.33-7.51,11.64,0,0-11.07.74-10.28,8.56,0,0-5.93,1.12-4,10.79,0,0-6.72,3.72-6.72,10.42,0,0-9.49-7.07-13.84,0,0,0-17.39,3-13.84,21.22,0,0-4.74,5.58,3.17,10.42,0,0,2,8.56,6.72,8.94,0,0,2,7.44,13.05,4.46,0,0,3.56,6.33,6.72,8.94,0,0,0,8.93,3.16,11.16s6.33,7.45,11.07,7.45,6.33,9.3,17.4-4.47c0,0,9.49,6.7,17-6.7,0,0,9.88-.37,11.46-6.33,0,0,9.89-7.44,9.89-12.28,0,0,12.25-6.33,9.88-19.73,0,0,8.52-17.49.31-21.59,0,0,2.06-12.65-3.47-11.91C266.51,303.51,266.51,287.51,257.81,290.86Z"/><path id="_Path_82" data-name="&lt;Path&gt;" class="cls-11" d="M239.62,284.68s3.92-10.54-4.17-9.22c0,0-4.92,6.45-4.13,9.22C231.32,284.68,232.16,291.64,239.62,284.68Z"/><path id="_Path_83" data-name="&lt;Path&gt;" class="cls-11" d="M257.13,297.86s3.14-7.65-2.09-7.38-6.62,2.63-8.36,5.53c0,0-4.88,1.85-5.58,4.48,0,0-7.55-4.74-10.4,5,0,0-9.7,8.17,0,12.92,0,0,6.22,1.05,7.61-2.9s3.21-4.75,4.74.26c0,0-1.88,3.43,0,4,0,0-3,7.11,4,7.11s8.36-4.74,6.62-7.38c0,0,2.79-3.42,2.79-5.8,0,0,6.05-4.74,1.63-9.22C258.07,304.45,261,297.33,257.13,297.86Z"/><path id="_Path_84" data-name="&lt;Path&gt;" class="cls-3" d="M240.56,299.7s2-12.79,2-15.09.79-7.84,1.58-8.11-.6,8.15-.79,11.6S240.56,299.7,240.56,299.7Z"/><path id="_Path_85" data-name="&lt;Path&gt;" class="cls-3" d="M237.25,319.47s3.85-13.4,3.32-17.13a15.81,15.81,0,0,0-1.63,7.11s-4.61-9.66-4.41-9.75l-.2.09s1.53,8.85,3.15,10.72S237.25,319.47,237.25,319.47Z"/><path id="_Path_86" data-name="&lt;Path&gt;" class="cls-3" d="M250.69,313.67s-2.41,14.24-5.56,20.56c0,0-2.08-2.37-1.55-7.38,0,0-1.89,4.22,1.55,10.28C245.13,337.13,252.27,320.26,250.69,313.67Z"/><path id="_Path_87" data-name="&lt;Path&gt;" class="cls-11" d="M222.82,278.09s1.38-7.94-2.57-7.45l-4,.49s-10.28,2.47-7.51,12.36c0,0-7.12,4.94-7.91,10.87a10.72,10.72,0,0,0-6.33,9.69s-8.89,3.16-6.32,12.06c0,0-6.72-2.57-7.71-1.78s-5.14-.59-5.54,1.78a26.88,26.88,0,0,0-4.44.13c-.59.26-7.22,3.83-5.84,9.95s3.36,3.1,3.36-.92c0,0,4.15,2.11,4.35-1.45,0,0,13,6.13,12.46-3.36,0,0,3.95-3.16,5.14-3.95s3.95,2.37,5.14-2.57c0,0,6.52-1.78,3.56,3.95,0,0-1.58,8.7,3.75,8.5s5.93-2.17,6.92-2.57,3.17-2.24,3.17,1.45,3.75,7.05,7.9,2.9c0,0,6.92-3.16,3.56-8.1,0,0,3.76-8.31-4.15-6.92,0,0-4.85,5.79-2.92-1.06a6.48,6.48,0,0,0,1.73-7.45s7.12,1.11,7.32-4.29c0,0,6.55-9.35,5.25-10.53,0,0,1.47-10.28-7.42-4.55C223.81,285.27,229.34,277.23,222.82,278.09Z"/><path id="_Path_88" data-name="&lt;Path&gt;" class="cls-10" d="M212.34,290.47h6.52s-1.78,3.16-3.26,4-5.44,5.21-4.45,3.43C212.55,295.41,214.91,291.52,212.34,290.47Z"/><path id="_Path_89" data-name="&lt;Path&gt;" class="cls-3" d="M221.81,309.41s-.5-11.51.48-13.77c0,0,.7,4.84,0,7.15,0,0,4.82-6,4.69-6.12s-.67,1.68-.67,1.68-2.95,3.7-3.17,5.37A48.47,48.47,0,0,1,221.81,309.41Z"/><polygon id="_Path_90" data-name="&lt;Path&gt;" class="cls-3" points="174.04 318.14 173.63 313.78 173.28 312.06 172.77 321.62 174.04 318.14"/><path id="_Path_91" data-name="&lt;Path&gt;" class="cls-3" d="M234.33,332.13s-2.42,5.73-2,8.1-2,7.32-3.36,2.18-8-20.69-7.27-25.57,1.33-4.78,1.33-4.78c-.29,7.77-.65,6.48-.39,7.41.59,2.18,5.35,13.81,5.35,13.81s3.37-4.78,3.26-6.43c0,0,.48-.46-2.88,8l2,4.55S232.21,330.35,234.33,332.13Z"/><path id="_Path_92" data-name="&lt;Path&gt;" class="cls-11" d="M244.82,341.35s-1-6.33-5-2.11.72,7.14,3.14,5.42S244.82,341.35,244.82,341.35Z"/><path id="_Path_93" data-name="&lt;Path&gt;" class="cls-3" d="M253.38,329.75S251,344,248.32,344.66C248.32,344.66,254.75,347.65,253.38,329.75Z"/><polygon id="_Path_94" data-name="&lt;Path&gt;" class="cls-3" points="260.81 357.55 267.24 352.44 269.56 350.17 253.81 359.6 260.81 357.55"/><path id="_Path_95" data-name="&lt;Path&gt;" class="cls-3" d="M221.68,360.86s-8.17-24-9.22-23.86-12.12-7.14-13.17-8.64-.8,4.56,11.2,10.88l-11.6,1.06,11.4,1.18s3.48,3.3,3.75,5.67-8.69-.26-8.69-.26.7,2.63,9.58,3.82l6.75,11.47"/><path id="_Path_96" data-name="&lt;Path&gt;" class="cls-11" d="M199.27,362.75s6.88,4.58,7.65-.6-1.28-7-3.78-9.29c0,0-.85-5.15-3.29-6.35,0,0,6.13-6.47-2.87-11.18,0,0-6.1-11.12-12.66-2.54,0,0-2.26,5.88,1.34,8s4,4.08-1.19,4.6c0,0-3-2.52-3.87-.78,0,0-6.39-4.35-7.76,2.49s3,9.14,5.93,7.95c0,0,2.81,3.41,5.14,3.87,0,0,3.46,6.87,8.72,3.42C192.63,362.37,199,366.61,199.27,362.75Z"/></g><g id="_Group_7" data-name="&lt;Group&gt;"><path id="_Path_97" data-name="&lt;Path&gt;" class="cls-7" d="M208.91,202.85s-3.58-5.78-6.66-5.3c0,0,2.05-7.71-6.14-9.16,0,0-4.1-18.8-19.46-2.89,0,0-13.83-18.09-21.51-6.4,0,0-13.83,3-9.74,15.07,0,0-14.34,1-13.31,11.09,0,0-7.68,1.45-5.12,14,0,0-8.71,4.83-8.71,13.5,0,0-12.29-9.16-17.92,0,0,0-22.54,3.86-17.93,27.48,0,0-6.14,7.23,4.1,13.5,0,0,2.56,11.09,8.7,11.57,0,0,2.57,9.65,16.91,5.79,0,0,4.6,8.19,8.7,11.57,0,0,0,11.57,4.1,14.46s8.19,9.64,14.34,9.64,8.19,12.06,22.53-5.78c0,0,12.29,8.68,22-8.68,0,0,12.8-.48,14.85-8.19,0,0,12.8-9.65,12.8-15.91,0,0,15.88-8.2,12.8-25.56,0,0,11-22.66.4-28,0,0,2.68-16.39-4.49-15.43C220.18,219.24,220.18,198.51,208.91,202.85Z"/><path id="_Path_98" data-name="&lt;Path&gt;" class="cls-8" d="M185.35,194.85s5.08-13.64-5.4-11.95c0,0-6.38,8.36-5.35,11.95C174.6,194.85,175.69,203.87,185.35,194.85Z"/><path id="_Path_99" data-name="&lt;Path&gt;" class="cls-8" d="M208,211.92s4.06-9.9-2.71-9.56-8.58,3.41-10.84,7.17c0,0-6.32,2.39-7.22,5.8,0,0-9.78-6.14-13.47,6.49,0,0-12.57,10.58,0,16.73,0,0,8,1.36,9.85-3.76s4.16-6.14,6.15.34c0,0-2.44,4.44,0,5.13,0,0-3.89,9.22,5.14,9.22s10.84-6.15,8.58-9.57c0,0,3.61-4.43,3.61-7.51,0,0,7.84-6.14,2.11-12C209.24,220.45,213,211.23,208,211.92Z"/><path id="_Path_100" data-name="&lt;Path&gt;" class="cls-3" d="M186.57,214.31s2.54-16.57,2.54-19.55,1-10.16,2-10.5-.78,10.55-1,15S186.57,214.31,186.57,214.31Z"/><polygon id="_Path_101" data-name="&lt;Path&gt;" class="cls-3" points="205.19 199.88 203.58 205.31 203.17 207.56 208.39 196.31 205.19 199.88"/><path id="_Path_102" data-name="&lt;Path&gt;" class="cls-3" d="M182.28,239.91s5-17.35,4.3-22.19a20.58,20.58,0,0,0-2.12,9.22s-6-12.51-5.7-12.63l-.26.12s2,11.46,4.08,13.88S182.28,239.91,182.28,239.91Z"/><path id="_Path_103" data-name="&lt;Path&gt;" class="cls-9" d="M199.69,232.4s-3.13,18.44-7.2,26.64c0,0-2.7-3.08-2-9.56,0,0-2.44,5.46,2,13.31C192.49,262.79,201.74,240.94,199.69,232.4Z"/><path id="_Path_104" data-name="&lt;Path&gt;" class="cls-8" d="M163.59,186.31s1.79-10.28-3.33-9.64l-5.12.63s-13.32,3.21-9.74,16c0,0-9.21,6.4-10.24,14.08,0,0-8.19,3.33-8.19,12.55,0,0-11.53,4.1-8.2,15.62,0,0-8.7-3.33-10-2.3s-6.66-.77-7.17,2.3c0,0-5-.17-5.75.17s-9.36,5-7.57,12.89,4.35,4,4.35-1.19c0,0,5.38,2.73,5.64-1.88,0,0,16.9,7.94,16.13-4.35,0,0,5.12-4.1,6.66-5.13s5.12,3.08,6.66-3.33c0,0,8.45-2.3,4.6,5.13,0,0-2,11.26,4.87,11s7.68-2.82,9-3.33,4.1-2.9,4.1,1.88,4.87,9.13,10.24,3.75c0,0,9-4.09,4.61-10.5,0,0,4.87-10.75-5.38-9,0,0-6.28,7.51-3.78-1.37a8.38,8.38,0,0,0,2.25-9.64s9.22,1.43,9.47-5.56c0,0,8.49-12.11,6.81-13.65,0,0,1.9-13.31-9.62-5.89C164.87,195.61,172,185.2,163.59,186.31Z"/><path id="_Path_105" data-name="&lt;Path&gt;" class="cls-7" d="M150,202.35h8.45s-2.3,4.1-4.22,5.21-7,6.75-5.76,4.44C150.29,208.74,153.34,203.71,150,202.35Z"/><path id="_Path_106" data-name="&lt;Path&gt;" class="cls-3" d="M162.29,226.88s-.66-14.91.62-17.83c0,0,.91,6.27,0,9.26,0,0,6.23-7.81,6.08-7.93s-.87,2.17-.87,2.17-3.83,4.8-4.11,7A62,62,0,0,1,162.29,226.88Z"/><polygon id="_Path_107" data-name="&lt;Path&gt;" class="cls-3" points="100.41 238.2 99.88 232.55 99.42 230.31 98.77 242.69 100.41 238.2"/><path id="_Path_108" data-name="&lt;Path&gt;" class="cls-3" d="M178.5,256.3s-3.14,7.43-2.62,10.5-2.56,9.48-4.36,2.82-10.36-26.8-9.4-33.12,1.72-6.19,1.72-6.19c-.38,10.06-.84,8.4-.51,9.6.77,2.82,6.93,17.89,6.93,17.89s4.37-6.19,4.23-8.32c0,0,.62-.6-3.73,10.41l2.56,5.89S175.75,254,178.5,256.3Z"/><path id="_Path_109" data-name="&lt;Path&gt;" class="cls-8" d="M192.09,268.25s-1.36-8.19-6.44-2.73.93,9.25,4.07,7S192.09,268.25,192.09,268.25Z"/><path id="_Path_110" data-name="&lt;Path&gt;" class="cls-3" d="M203.17,253.23s-3.14,18.47-6.55,19.31C196.62,272.54,204.94,276.41,203.17,253.23Z"/><polygon id="_Path_111" data-name="&lt;Path&gt;" class="cls-3" points="154.94 182.76 150.53 177.22 148.48 175.17 155.96 188.36 154.94 182.76"/><polygon id="_Path_112" data-name="&lt;Path&gt;" class="cls-3" points="212.79 289.23 221.13 282.61 224.13 279.67 203.73 291.89 212.79 289.23"/><path id="_Path_113" data-name="&lt;Path&gt;" class="cls-3" d="M162.12,293.52s-10.59-31.07-12-30.9-15.69-9.25-17.06-11.2-1,5.91,14.51,14.1l-15,1.37,14.76,1.53s4.51,4.27,4.86,7.35-11.25-.35-11.25-.35.9,3.42,12.4,4.95l8.75,14.86"/><path id="_Path_114" data-name="&lt;Path&gt;" class="cls-8" d="M133.09,296s8.91,5.93,9.91-.78-1.66-9.08-4.9-12c0,0-1.1-6.67-4.27-8.23,0,0,7.95-8.37-3.7-14.48,0,0-7.91-14.4-16.41-3.29,0,0-2.92,7.62,1.75,10.4s5.2,5.29-1.55,6c0,0-3.87-3.26-5-1,0,0-8.27-5.63-10.05,3.23s3.89,11.83,7.68,10.29c0,0,3.64,4.42,6.66,5,0,0,4.48,8.89,11.3,4.42C124.49,295.47,132.79,301,133.09,296Z"/></g><g id="_Group_8" data-name="&lt;Group&gt;"><path id="_Path_115" data-name="&lt;Path&gt;" class="cls-7" d="M128.33,293.43s-3.59-5.79-6.66-5.31c0,0,2-7.71-6.15-9.16,0,0-4.09-18.8-19.46-2.89,0,0-13.82-18.09-21.51-6.39,0,0-13.82,3-9.73,15.07,0,0-14.34,1-13.31,11.09,0,0-7.69,1.44-5.12,14,0,0-8.71,4.82-8.71,13.5,0,0-12.29-9.16-17.93,0,0,0-22.53,3.85-17.92,27.48,0,0-6.15,7.23,4.1,13.5,0,0,2.56,11.08,8.7,11.57,0,0,2.56,9.64,16.9,5.78,0,0,4.61,8.2,8.71,11.57,0,0,0,11.57,4.1,14.46s8.19,9.65,14.34,9.65,8.19,12.05,22.53-5.79c0,0,12.29,8.68,22-8.68,0,0,12.81-.48,14.86-8.19,0,0,12.8-9.64,12.8-15.91,0,0,15.88-8.2,12.8-25.55,0,0,11-22.66.4-28,0,0,2.68-16.39-4.49-15.42C139.6,309.82,139.6,289.09,128.33,293.43Z"/><path id="_Path_116" data-name="&lt;Path&gt;" class="cls-8" d="M104.77,285.42s5.08-13.64-5.4-11.94c0,0-6.38,8.35-5.36,11.94C94,285.42,95.11,294.44,104.77,285.42Z"/><path id="_Path_117" data-name="&lt;Path&gt;" class="cls-8" d="M127.45,302.49s4.07-9.9-2.71-9.56-8.57,3.41-10.83,7.17c0,0-6.32,2.39-7.23,5.8,0,0-9.77-6.14-13.46,6.49,0,0-12.57,10.59,0,16.73,0,0,8,1.37,9.85-3.75s4.16-6.15,6.15.34c0,0-2.44,4.44,0,5.12,0,0-3.89,9.22,5.14,9.22s10.84-6.15,8.58-9.56c0,0,3.61-4.44,3.61-7.51,0,0,7.84-6.15,2.11-12C128.66,311,132.42,301.81,127.45,302.49Z"/><path id="_Path_118" data-name="&lt;Path&gt;" class="cls-3" d="M106,304.88s2.55-16.56,2.55-19.55,1-10.15,2-10.5-.77,10.55-1,15S106,304.88,106,304.88Z"/><polygon id="_Path_119" data-name="&lt;Path&gt;" class="cls-3" points="124.61 290.45 122.99 295.89 122.59 298.13 127.81 286.89 124.61 290.45"/><path id="_Path_120" data-name="&lt;Path&gt;" class="cls-3" d="M101.7,330.49s5-17.36,4.3-22.2a20.58,20.58,0,0,0-2.12,9.22s-6-12.51-5.71-12.63l-.25.12s2,11.46,4.07,13.88S101.7,330.49,101.7,330.49Z"/><path id="_Path_121" data-name="&lt;Path&gt;" class="cls-9" d="M119.11,323s-3.13,18.43-7.2,26.63c0,0-2.7-3.07-2-9.56,0,0-2.45,5.46,2,13.31C111.91,353.36,121.16,331.51,119.11,323Z"/><path id="_Path_122" data-name="&lt;Path&gt;" class="cls-8" d="M83,276.88s1.8-10.28-3.33-9.64l-5.12.63s-13.31,3.21-9.73,16c0,0-9.22,6.4-10.24,14.09,0,0-8.19,3.33-8.19,12.54,0,0-11.53,4.1-8.2,15.62,0,0-8.71-3.32-10-2.3s-6.65-.77-7.17,2.3c0,0-5-.17-5.75.17s-9.35,5-7.56,12.89,4.35,4,4.35-1.19c0,0,5.38,2.73,5.63-1.88,0,0,16.91,7.94,16.14-4.35,0,0,5.12-4.1,6.66-5.12s5.12,3.07,6.65-3.33c0,0,8.45-2.31,4.61,5.12,0,0-2,11.27,4.87,11s7.68-2.82,9-3.33,4.1-2.9,4.1,1.88,4.86,9.13,10.24,3.76c0,0,9-4.1,4.61-10.5,0,0,4.87-10.76-5.38-9,0,0-6.28,7.51-3.78-1.36a8.4,8.4,0,0,0,2.25-9.65s9.21,1.43,9.47-5.56c0,0,8.48-12.11,6.8-13.64,0,0,1.91-13.32-9.62-5.89C84.28,286.19,91.45,275.77,83,276.88Z"/><path id="_Path_123" data-name="&lt;Path&gt;" class="cls-7" d="M69.43,292.92h8.45s-2.3,4.1-4.22,5.21-7,6.75-5.76,4.45C69.71,299.32,72.76,294.28,69.43,292.92Z"/><path id="_Path_124" data-name="&lt;Path&gt;" class="cls-3" d="M81.7,317.45s-.65-14.91.63-17.83c0,0,.9,6.27,0,9.26,0,0,6.23-7.8,6.08-7.93s-.87,2.17-.87,2.17-3.83,4.81-4.11,7A61.26,61.26,0,0,1,81.7,317.45Z"/><polygon id="_Path_125" data-name="&lt;Path&gt;" class="cls-3" points="19.83 328.77 19.3 323.12 18.84 320.88 18.18 333.27 19.83 328.77"/><path id="_Path_126" data-name="&lt;Path&gt;" class="cls-3" d="M97.92,346.88s-3.14,7.42-2.63,10.5-2.56,9.47-4.35,2.81-10.36-26.8-9.4-33.11,1.72-6.19,1.72-6.19c-.38,10.06-.84,8.39-.51,9.6.77,2.81,6.93,17.88,6.93,17.88s4.37-6.19,4.22-8.32c0,0,.63-.6-3.73,10.41l2.56,5.89S95.17,344.57,97.92,346.88Z"/><path id="_Path_127" data-name="&lt;Path&gt;" class="cls-8" d="M111.51,358.83s-1.37-8.2-6.44-2.73.93,9.24,4.07,7S111.51,358.83,111.51,358.83Z"/><path id="_Path_128" data-name="&lt;Path&gt;" class="cls-3" d="M122.59,343.8s-3.14,18.47-6.55,19.31C116,363.11,124.36,367,122.59,343.8Z"/><polygon id="_Path_129" data-name="&lt;Path&gt;" class="cls-3" points="74.36 273.33 69.94 267.79 67.89 265.74 75.38 278.93 74.36 273.33"/><polygon id="_Path_130" data-name="&lt;Path&gt;" class="cls-3" points="132.21 379.81 140.54 373.18 143.55 370.25 123.15 382.46 132.21 379.81"/><path id="_Path_131" data-name="&lt;Path&gt;" class="cls-3" d="M81.54,384.09s-10.6-31.07-12-30.9S53.9,344,52.53,342s-1,5.9,14.5,14.1l-15,1.36L66.78,359s4.5,4.28,4.86,7.35S60.38,366,60.38,366s.91,3.41,12.41,4.95l8.75,14.85"/><path id="_Path_132" data-name="&lt;Path&gt;" class="cls-8" d="M52.51,386.54s8.91,5.93,9.91-.77-1.66-9.09-4.9-12c0,0-1.1-6.67-4.27-8.22,0,0,8-8.38-3.71-14.48,0,0-7.9-14.41-16.4-3.3,0,0-2.92,7.62,1.74,10.4s5.21,5.29-1.54,6c0,0-3.87-3.26-5-1,0,0-8.28-5.62-10,3.23S22.16,378.14,26,376.6c0,0,3.64,4.42,6.65,5,0,0,4.49,8.9,11.3,4.43C43.9,386.05,52.2,391.55,52.51,386.54Z"/></g><g id="_Group_9" data-name="&lt;Group&gt;"><path id="_Path_133" data-name="&lt;Path&gt;" class="cls-1" d="M270.9,147.55s-2.69-4.34-5-4c0,0,1.54-5.78-4.61-6.87,0,0-3.07-14.11-14.6-2.17,0,0-10.38-13.57-16.14-4.79,0,0-10.38,2.26-7.3,11.3,0,0-10.76.72-10,8.32,0,0-5.77,1.09-3.84,10.49,0,0-6.54,3.62-6.54,10.13,0,0-9.22-6.87-13.45,0,0,0-16.9,2.89-13.44,20.62,0,0-4.62,5.42,3.07,10.12,0,0,1.92,8.32,6.53,8.69,0,0,1.92,7.23,12.68,4.34,0,0,3.46,6.15,6.53,8.68,0,0,0,8.68,3.08,10.85s6.15,7.23,10.76,7.23,6.15,9.05,16.9-4.34c0,0,9.23,6.51,16.53-6.51,0,0,9.6-.36,11.14-6.15,0,0,9.61-7.23,9.61-11.93,0,0,11.91-6.15,9.6-19.17,0,0,8.28-17,.3-21,0,0,2-12.3-3.37-11.58C279.35,159.85,279.35,144.3,270.9,147.55Z"/><path id="_Path_134" data-name="&lt;Path&gt;" class="cls-12" d="M253.22,141.55s3.81-10.24-4.05-9c0,0-4.79,6.27-4,9C245.15,141.55,246,148.31,253.22,141.55Z"/><path id="_Path_135" data-name="&lt;Path&gt;" class="cls-12" d="M270.24,154.35s3.05-7.42-2-7.17-6.44,2.56-8.13,5.38c0,0-4.75,1.79-5.42,4.36,0,0-7.34-4.62-10.11,4.86,0,0-9.42,7.94,0,12.56,0,0,6,1,7.4-2.82s3.12-4.61,4.61.25c0,0-1.83,3.33,0,3.85,0,0-2.92,6.91,3.86,6.91s8.13-4.61,6.43-7.17c0,0,2.71-3.33,2.71-5.64,0,0,5.88-4.61,1.59-9C271.15,160.76,274,153.84,270.24,154.35Z"/><path id="_Path_136" data-name="&lt;Path&gt;" class="cls-3" d="M254.13,156.15S256,143.72,256,141.48s.77-7.62,1.54-7.88-.59,7.92-.77,11.28S254.13,156.15,254.13,156.15Z"/><path id="_Path_137" data-name="&lt;Path&gt;" class="cls-3" d="M250.91,175.36s3.75-13,3.23-16.65a15.39,15.39,0,0,0-1.59,6.91s-4.47-9.38-4.28-9.47l-.19.09s1.49,8.6,3.06,10.41S250.91,175.36,250.91,175.36Z"/><path id="_Path_138" data-name="&lt;Path&gt;" class="cls-3" d="M264,169.72s-2.35,13.84-5.4,20c0,0-2-2.31-1.52-7.18,0,0-1.83,4.1,1.52,10C258.58,192.52,265.52,176.13,264,169.72Z"/><path id="_Path_139" data-name="&lt;Path&gt;" class="cls-12" d="M236.89,135.14s1.34-7.71-2.5-7.24l-3.84.48s-10,2.41-7.3,12c0,0-6.92,4.81-7.69,10.57a10.42,10.42,0,0,0-6.14,9.41s-8.65,3.08-6.15,11.72c0,0-6.53-2.49-7.5-1.73s-5-.57-5.37,1.73a26.53,26.53,0,0,0-4.32.13c-.57.25-7,3.72-5.68,9.67s3.27,3,3.27-.89c0,0,4,2,4.23-1.41,0,0,12.68,5.95,12.1-3.27,0,0,3.84-3.07,5-3.84s3.84,2.3,5-2.5c0,0,6.34-1.73,3.46,3.84,0,0-1.54,8.46,3.65,8.26s5.76-2.11,6.73-2.49,3.07-2.18,3.07,1.41,3.65,6.85,7.68,2.81c0,0,6.73-3.07,3.46-7.87,0,0,3.65-8.07-4-6.73,0,0-4.71,5.64-2.84-1a6.31,6.31,0,0,0,1.69-7.24s6.91,1.07,7.1-4.17c0,0,6.37-9.09,5.11-10.24,0,0,1.43-10-7.22-4.42C237.85,142.12,243.23,134.31,236.89,135.14Z"/><path id="_Path_140" data-name="&lt;Path&gt;" class="cls-1" d="M226.71,147.17h6.34s-1.73,3.08-3.17,3.91-5.29,5.07-4.33,3.34C226.91,152,229.2,148.19,226.71,147.17Z"/><path id="_Path_141" data-name="&lt;Path&gt;" class="cls-3" d="M235.91,165.58s-.49-11.19.47-13.38c0,0,.68,4.71,0,7,0,0,4.68-5.86,4.56-6s-.65,1.63-.65,1.63-2.87,3.6-3.08,5.23A46.22,46.22,0,0,1,235.91,165.58Z"/><polygon id="_Path_142" data-name="&lt;Path&gt;" class="cls-3" points="189.49 174.07 189.09 169.83 188.75 168.16 188.26 177.44 189.49 174.07"/><path id="_Path_143" data-name="&lt;Path&gt;" class="cls-3" d="M248.08,187.66s-2.35,5.57-2,7.87-1.92,7.11-3.26,2.12-7.78-20.11-7.06-24.85,1.29-4.64,1.29-4.64c-.28,7.54-.63,6.3-.38,7.2.57,2.11,5.2,13.42,5.2,13.42s3.28-4.65,3.17-6.25c0,0,.47-.45-2.8,7.82l1.92,4.41S246,185.93,248.08,187.66Z"/><path id="_Path_144" data-name="&lt;Path&gt;" class="cls-12" d="M258.28,196.62s-1-6.15-4.84-2.05.7,6.94,3.06,5.26S258.28,196.62,258.28,196.62Z"/><path id="_Path_145" data-name="&lt;Path&gt;" class="cls-3" d="M266.59,185.35s-2.35,13.86-4.92,14.48C261.67,199.83,267.92,202.74,266.59,185.35Z"/><polygon id="_Path_146" data-name="&lt;Path&gt;" class="cls-3" points="273.83 212.37 280.04 207.35 282.27 205.12 267.05 214.42 273.83 212.37"/><path id="_Path_147" data-name="&lt;Path&gt;" class="cls-3" d="M235.79,215.58s-7.95-23.31-9-23.19-11.78-6.93-12.8-8.4-.78,4.43,10.88,10.58l-11.27,1,11.08,1.14s3.38,3.21,3.64,5.52-8.44-.26-8.44-.26.68,2.56,9.3,3.72l6.57,11.14"/><path id="_Path_148" data-name="&lt;Path&gt;" class="cls-12" d="M214,217.42s6.69,4.45,7.43-.59-1.24-6.81-3.67-9c0,0-.82-5-3.2-6.17,0,0,6-6.28-2.78-10.86,0,0-5.93-10.81-12.31-2.47,0,0-2.19,5.72,1.31,7.8s3.9,4-1.16,4.47c0,0-2.91-2.45-3.77-.76,0,0-6.21-4.22-7.54,2.43s2.92,8.88,5.76,7.72c0,0,2.74,3.31,5,3.77,0,0,3.36,6.67,8.47,3.31C207.55,217,213.78,221.17,214,217.42Z"/></g><g id="_Group_10" data-name="&lt;Group&gt;"><path id="_Path_149" data-name="&lt;Path&gt;" class="cls-4" d="M208.18,300s-3.85-6.22-7.15-5.7c0,0,2.2-8.29-6.61-9.85,0,0-4.41-20.21-20.92-3.11,0,0-14.87-19.44-23.13-6.87,0,0-14.86,3.24-10.46,16.2,0,0-15.42,1-14.31,11.92,0,0-8.26,1.56-5.51,15,0,0-9.36,5.18-9.36,14.51,0,0-13.21-9.84-19.27,0,0,0-24.23,4.15-19.27,29.55,0,0-6.61,7.77,4.4,14.51,0,0,2.76,11.92,9.36,12.44,0,0,2.76,10.36,18.17,6.22,0,0,5,8.81,9.36,12.44,0,0,0,12.44,4.41,15.54s8.81,10.37,15.41,10.37,8.81,13,24.23-6.22c0,0,13.21,9.33,23.67-9.33,0,0,13.77-.52,16-8.81,0,0,13.77-10.37,13.77-17.1,0,0,17.06-8.81,13.76-27.47,0,0,11.86-24.36.43-30.06,0,0,2.87-17.63-4.83-16.59C220.3,317.64,220.3,295.35,208.18,300Z"/><path id="_Path_150" data-name="&lt;Path&gt;" class="cls-5" d="M182.86,291.41s5.46-14.66-5.81-12.84c0,0-6.86,9-5.76,12.84C171.29,291.41,172.47,301.11,182.86,291.41Z"/><path id="_Path_151" data-name="&lt;Path&gt;" class="cls-5" d="M207.24,309.76s4.37-10.64-2.91-10.27-9.22,3.67-11.65,7.71c0,0-6.8,2.56-7.77,6.24,0,0-10.51-6.61-14.47,7,0,0-13.51,11.38,0,18,0,0,8.65,1.46,10.59-4s4.47-6.61,6.61.36c0,0-2.62,4.78,0,5.51,0,0-4.18,9.91,5.53,9.91s11.65-6.61,9.22-10.28c0,0,3.88-4.77,3.88-8.07,0,0,8.43-6.61,2.27-12.85C208.54,318.94,212.58,309,207.24,309.76Z"/><path id="_Path_152" data-name="&lt;Path&gt;" class="cls-5" d="M179.55,339.86s5.37-18.65,4.63-23.86a22,22,0,0,0-2.28,9.91s-6.41-13.45-6.14-13.58l-.27.13s2.13,12.33,4.38,14.92S179.55,339.86,179.55,339.86Z"/><path id="_Path_153" data-name="&lt;Path&gt;" class="cls-3" d="M198.27,331.79s-3.36,19.82-7.74,28.63c0,0-2.9-3.3-2.17-10.28,0,0-2.63,5.87,2.17,14.32C190.53,364.46,200.48,341,198.27,331.79Z"/><path id="_Path_154" data-name="&lt;Path&gt;" class="cls-5" d="M159.46,282.24s1.92-11.06-3.58-10.37l-5.51.68s-14.31,3.45-10.46,17.21c0,0-9.91,6.88-11,15.14,0,0-8.81,3.58-8.81,13.49,0,0-12.39,4.41-8.81,16.79,0,0-9.36-3.58-10.74-2.47s-7.15-.83-7.7,2.47c0,0-5.37-.18-6.19.18s-10.06,5.33-8.13,13.86,4.68,4.32,4.68-1.28c0,0,5.78,2.94,6.06-2,0,0,18.17,8.53,17.34-4.68,0,0,5.51-4.4,7.16-5.51s5.5,3.31,7.16-3.57c0,0,9.08-2.48,5,5.5,0,0-2.2,12.11,5.23,11.84s8.26-3,9.64-3.58,4.4-3.12,4.4,2,5.23,9.82,11,4c0,0,9.64-4.41,5-11.29,0,0,5.23-11.56-5.78-9.64,0,0-6.75,8.08-4.07-1.46a9,9,0,0,0,2.42-10.37s9.91,1.53,10.18-6c0,0,9.12-13,7.31-14.67,0,0,2.05-14.32-10.34-6.33C160.83,292.24,168.54,281,159.46,282.24Z"/><path id="_Path_155" data-name="&lt;Path&gt;" class="cls-6" d="M144.87,299.48H154s-2.48,4.4-4.54,5.6-7.57,7.25-6.2,4.78C145.16,306.35,148.45,300.94,144.87,299.48Z"/><path id="_Path_156" data-name="&lt;Path&gt;" class="cls-3" d="M158.06,325.85s-.7-16,.67-19.17c0,0,1,6.74,0,10,0,0,6.7-8.4,6.53-8.53s-.93,2.34-.93,2.34-4.12,5.16-4.42,7.49A66.58,66.58,0,0,1,158.06,325.85Z"/><polygon id="_Path_157" data-name="&lt;Path&gt;" class="cls-3" points="91.54 338.02 90.97 331.94 90.48 329.54 89.77 342.85 91.54 338.02"/><path id="_Path_158" data-name="&lt;Path&gt;" class="cls-3" d="M175.49,357.48s-3.37,8-2.82,11.29-2.75,10.19-4.68,3S156.85,343,157.88,336.2s1.85-6.66,1.85-6.66c-.41,10.82-.9,9-.55,10.32.83,3,7.46,19.23,7.46,19.23s4.69-6.65,4.53-8.95c0,0,.67-.64-4,11.2l2.76,6.33S172.54,355,175.49,357.48Z"/><path id="_Path_159" data-name="&lt;Path&gt;" class="cls-5" d="M190.1,370.33s-1.47-8.81-6.92-2.94,1,9.94,4.37,7.54S190.1,370.33,190.1,370.33Z"/><path id="_Path_160" data-name="&lt;Path&gt;" class="cls-3" d="M202,354.18s-3.37,19.85-7,20.75C195,374.93,203.92,379.1,202,354.18Z"/><polygon id="_Path_161" data-name="&lt;Path&gt;" class="cls-3" points="212.36 392.88 221.32 385.76 224.55 382.61 202.62 395.74 212.36 392.88"/><path id="_Path_162" data-name="&lt;Path&gt;" class="cls-3" d="M157.88,397.49s-11.39-33.4-12.84-33.22-16.87-9.94-18.34-12-1.12,6.34,15.59,15.15l-16.14,1.47L142,370.5s4.85,4.6,5.23,7.9-12.1-.36-12.1-.36,1,3.67,13.33,5.32l9.41,16"/><path id="_Path_163" data-name="&lt;Path&gt;" class="cls-5" d="M126.68,400.12s9.57,6.38,10.65-.83-1.79-9.76-5.27-12.94c0,0-1.18-7.17-4.59-8.84,0,0,8.55-9-4-15.57,0,0-8.5-15.48-17.64-3.54,0,0-3.14,8.2,1.87,11.18s5.6,5.69-1.66,6.41c0,0-4.16-3.51-5.39-1.09,0,0-8.9-6-10.81,3.47s4.19,12.73,8.26,11.07c0,0,3.92,4.75,7.15,5.4,0,0,4.82,9.56,12.15,4.75C117.42,399.59,126.34,405.5,126.68,400.12Z"/></g><g id="_Group_11" data-name="&lt;Group&gt;"><path id="_Path_164" data-name="&lt;Path&gt;" class="cls-7" d="M407.9,27.68s-3.58-5.78-6.66-5.3c0,0,2.05-7.71-6.14-9.16,0,0-4.1-18.8-19.46-2.89,0,0-13.83-18.09-21.51-6.39,0,0-13.83,3-9.74,15.07,0,0-14.34,1-13.31,11.09,0,0-7.68,1.44-5.12,14,0,0-8.71,4.82-8.71,13.5,0,0-12.29-9.16-17.92,0,0,0-22.54,3.85-17.93,27.48,0,0-6.14,7.23,4.1,13.49,0,0,2.56,11.09,8.7,11.58,0,0,2.57,9.64,16.91,5.78,0,0,4.6,8.2,8.7,11.57,0,0,0,11.57,4.1,14.46s8.19,9.65,14.34,9.65,8.19,12,22.53-5.79c0,0,12.29,8.68,22-8.68,0,0,12.8-.48,14.85-8.19,0,0,12.8-9.64,12.8-15.91,0,0,15.88-8.2,12.8-25.55,0,0,11-22.66.4-28,0,0,2.68-16.39-4.49-15.42C419.17,44.08,419.17,23.35,407.9,27.68Z"/><path id="_Path_165" data-name="&lt;Path&gt;" class="cls-8" d="M384.34,19.68S389.42,6,378.94,7.74c0,0-6.38,8.35-5.35,11.94C373.59,19.68,374.68,28.7,384.34,19.68Z"/><path id="_Path_166" data-name="&lt;Path&gt;" class="cls-8" d="M407,36.75s4.06-9.9-2.71-9.56-8.58,3.41-10.84,7.17c0,0-6.32,2.39-7.22,5.8,0,0-9.78-6.14-13.47,6.49,0,0-12.57,10.59,0,16.73,0,0,8,1.37,9.85-3.75s4.16-6.15,6.15.34c0,0-2.44,4.44,0,5.12,0,0-3.89,9.22,5.14,9.22s10.84-6.15,8.58-9.56c0,0,3.61-4.44,3.61-7.51,0,0,7.84-6.15,2.11-12C408.23,45.29,412,36.07,407,36.75Z"/><path id="_Path_167" data-name="&lt;Path&gt;" class="cls-3" d="M381.27,64.75s5-17.36,4.3-22.2a20.58,20.58,0,0,0-2.12,9.22s-6-12.51-5.7-12.63l-.26.12s2,11.46,4.08,13.88S381.27,64.75,381.27,64.75Z"/><path id="_Path_168" data-name="&lt;Path&gt;" class="cls-9" d="M398.68,57.24s-3.13,18.43-7.2,26.63c0,0-2.7-3.08-2-9.56,0,0-2.44,5.46,2,13.31C391.48,87.62,400.73,65.77,398.68,57.24Z"/><path id="_Path_169" data-name="&lt;Path&gt;" class="cls-8" d="M362.58,11.14S364.37.86,359.25,1.5l-5.12.63s-13.32,3.21-9.74,16c0,0-9.21,6.4-10.24,14.09,0,0-8.19,3.32-8.19,12.54,0,0-11.53,4.1-8.2,15.62,0,0-8.7-3.32-10-2.3s-6.66-.77-7.17,2.3c0,0-5-.17-5.75.17s-9.36,5-7.57,12.89,4.35,4,4.35-1.19c0,0,5.38,2.73,5.64-1.88,0,0,16.9,7.94,16.13-4.35,0,0,5.12-4.1,6.66-5.12s5.12,3.07,6.66-3.33c0,0,8.45-2.31,4.6,5.12,0,0-2,11.27,4.87,11s7.68-2.82,9-3.33,4.1-2.9,4.1,1.88,4.87,9.13,10.24,3.75c0,0,9-4.09,4.61-10.49,0,0,4.87-10.76-5.38-9,0,0-6.28,7.51-3.78-1.36a8.4,8.4,0,0,0,2.25-9.65S366.42,47,366.67,40c0,0,8.49-12.11,6.81-13.64,0,0,1.9-13.32-9.62-5.89C363.86,20.45,371,10,362.58,11.14Z"/><path id="_Path_170" data-name="&lt;Path&gt;" class="cls-7" d="M349,27.18h8.45s-2.3,4.1-4.22,5.21-7,6.75-5.76,4.45C349.28,33.58,352.33,28.54,349,27.18Z"/><path id="_Path_171" data-name="&lt;Path&gt;" class="cls-3" d="M361.28,51.71s-.66-14.91.62-17.83c0,0,.91,6.27,0,9.26,0,0,6.23-7.8,6.08-7.93s-.87,2.17-.87,2.17-3.83,4.81-4.11,7A62,62,0,0,1,361.28,51.71Z"/><polygon id="_Path_172" data-name="&lt;Path&gt;" class="cls-3" points="299.4 63.03 298.87 57.38 298.41 55.15 297.75 67.53 299.4 63.03"/><path id="_Path_173" data-name="&lt;Path&gt;" class="cls-3" d="M377.49,81.14s-3.14,7.42-2.62,10.49-2.56,9.48-4.36,2.82-10.36-26.8-9.4-33.11,1.72-6.2,1.72-6.2c-.38,10.06-.84,8.4-.51,9.61.77,2.81,6.93,17.88,6.93,17.88s4.37-6.19,4.23-8.32c0,0,.62-.6-3.73,10.41l2.56,5.89S374.74,78.83,377.49,81.14Z"/><path id="_Path_174" data-name="&lt;Path&gt;" class="cls-8" d="M391.08,93.09s-1.36-8.2-6.44-2.74.93,9.25,4.07,7S391.08,93.09,391.08,93.09Z"/><path id="_Path_175" data-name="&lt;Path&gt;" class="cls-3" d="M402.16,78.06S399,96.53,395.61,97.37C395.61,97.37,403.93,101.25,402.16,78.06Z"/><polygon id="_Path_176" data-name="&lt;Path&gt;" class="cls-3" points="411.78 114.07 420.12 107.44 423.12 104.5 402.72 116.72 411.78 114.07"/><path id="_Path_177" data-name="&lt;Path&gt;" class="cls-3" d="M361.11,118.35s-10.59-31.07-11.95-30.9-15.69-9.24-17.06-11.19-1,5.9,14.51,14.09l-15,1.37,14.76,1.53s4.51,4.27,4.86,7.35-11.25-.34-11.25-.34.9,3.41,12.4,4.95l8.75,14.85"/><path id="_Path_178" data-name="&lt;Path&gt;" class="cls-8" d="M332.08,120.8S341,126.73,342,120s-1.66-9.09-4.9-12c0,0-1.1-6.67-4.27-8.22,0,0,7.95-8.38-3.7-14.49,0,0-7.91-14.4-16.41-3.29,0,0-2.92,7.62,1.75,10.4s5.2,5.29-1.55,6c0,0-3.87-3.26-5-1,0,0-8.27-5.62-10.05,3.23s3.89,11.83,7.68,10.29c0,0,3.64,4.42,6.66,5,0,0,4.48,8.9,11.3,4.43C323.48,120.31,331.78,125.8,332.08,120.8Z"/></g><g id="_Group_12" data-name="&lt;Group&gt;"><path id="_Path_179" data-name="&lt;Path&gt;" class="cls-7" d="M403.59,114.58s-3.58-5.78-6.65-5.3c0,0,2-7.71-6.15-9.16,0,0-4.1-18.8-19.46-2.89,0,0-13.83-18.09-21.51-6.39,0,0-13.83,3-9.73,15.07,0,0-14.34,1-13.32,11.08,0,0-7.68,1.45-5.12,14,0,0-8.71,4.82-8.71,13.49,0,0-12.29-9.16-17.92,0,0,0-22.53,3.86-17.93,27.48,0,0-6.14,7.24,4.1,13.5,0,0,2.56,11.09,8.71,11.57,0,0,2.56,9.65,16.9,5.79,0,0,4.61,8.2,8.71,11.57,0,0,0,11.57,4.09,14.46s8.2,9.65,14.34,9.65,8.2,12,22.54-5.79c0,0,12.29,8.68,22-8.68,0,0,12.8-.48,14.85-8.19,0,0,12.8-9.65,12.8-15.91,0,0,15.88-8.2,12.81-25.56,0,0,11-22.65.39-28,0,0,2.68-16.39-4.49-15.42C414.86,131,414.86,110.24,403.59,114.58Z"/><path id="_Path_180" data-name="&lt;Path&gt;" class="cls-8" d="M380,106.58s5.08-13.64-5.4-11.94c0,0-6.38,8.35-5.36,11.94C369.28,106.58,370.38,115.6,380,106.58Z"/><path id="_Path_181" data-name="&lt;Path&gt;" class="cls-8" d="M402.72,123.65s4.06-9.9-2.71-9.56-8.58,3.41-10.84,7.17c0,0-6.32,2.39-7.22,5.8,0,0-9.78-6.14-13.47,6.49,0,0-12.56,10.58,0,16.73,0,0,8,1.37,9.86-3.76s4.16-6.14,6.14.35c0,0-2.43,4.43,0,5.12,0,0-3.89,9.22,5.15,9.22s10.83-6.15,8.57-9.56c0,0,3.62-4.44,3.62-7.52,0,0,7.83-6.14,2.11-11.95C403.93,132.18,407.69,123,402.72,123.65Z"/><path id="_Path_182" data-name="&lt;Path&gt;" class="cls-3" d="M381.25,126s2.54-16.57,2.54-19.55,1-10.16,2-10.5-.78,10.55-1,15S381.25,126,381.25,126Z"/><polygon id="_Path_183" data-name="&lt;Path&gt;" class="cls-3" points="399.87 111.61 398.26 117.05 397.85 119.29 403.08 108.05 399.87 111.61"/><path id="_Path_184" data-name="&lt;Path&gt;" class="cls-3" d="M377,151.65s5-17.36,4.31-22.2a20.43,20.43,0,0,0-2.12,9.22s-6-12.51-5.71-12.63l-.25.12s2,11.46,4.07,13.88S377,151.65,377,151.65Z"/><path id="_Path_185" data-name="&lt;Path&gt;" class="cls-9" d="M394.38,144.13s-3.14,18.44-7.2,26.64c0,0-2.71-3.08-2-9.56,0,0-2.45,5.46,2,13.31C387.18,174.52,396.42,152.67,394.38,144.13Z"/><path id="_Path_186" data-name="&lt;Path&gt;" class="cls-8" d="M358.27,98s1.79-10.28-3.33-9.64l-5.12.63s-13.32,3.21-9.73,16c0,0-9.22,6.4-10.24,14.08,0,0-8.2,3.33-8.2,12.55,0,0-11.52,4.1-8.19,15.62,0,0-8.71-3.33-10-2.3s-6.66-.77-7.17,2.3c0,0-5-.17-5.75.17s-9.36,4.95-7.57,12.89,4.36,4,4.36-1.19c0,0,5.37,2.73,5.63-1.88,0,0,16.9,7.94,16.13-4.35,0,0,5.12-4.1,6.66-5.13s5.12,3.08,6.66-3.32c0,0,8.45-2.31,4.61,5.12,0,0-2,11.26,4.86,11s7.69-2.82,9-3.33,4.09-2.9,4.09,1.88,4.87,9.13,10.25,3.75c0,0,9-4.09,4.61-10.5,0,0,4.86-10.75-5.38-9,0,0-6.28,7.51-3.78-1.36a8.38,8.38,0,0,0,2.24-9.65s9.22,1.43,9.48-5.56c0,0,8.48-12.11,6.8-13.64,0,0,1.9-13.32-9.62-5.89C359.55,107.35,366.72,96.93,358.27,98Z"/><path id="_Path_187" data-name="&lt;Path&gt;" class="cls-7" d="M344.7,114.08h8.45s-2.31,4.1-4.23,5.21-7,6.75-5.76,4.44C345,120.47,348,115.44,344.7,114.08Z"/><path id="_Path_188" data-name="&lt;Path&gt;" class="cls-3" d="M357,138.61s-.65-14.91.62-17.83c0,0,.91,6.27,0,9.26,0,0,6.23-7.81,6.07-7.93s-.87,2.17-.87,2.17-3.82,4.8-4.1,7A63.41,63.41,0,0,1,357,138.61Z"/><path id="_Path_189" data-name="&lt;Path&gt;" class="cls-3" d="M373.19,168s-3.14,7.43-2.63,10.5-2.56,9.48-4.35,2.82-10.36-26.8-9.41-33.12,1.73-6.19,1.73-6.19c-.38,10.06-.85,8.4-.52,9.61.77,2.81,6.94,17.88,6.94,17.88s4.36-6.19,4.22-8.32c0,0,.62-.6-3.73,10.41l2.56,5.89S370.44,165.73,373.19,168Z"/><path id="_Path_190" data-name="&lt;Path&gt;" class="cls-8" d="M386.77,180s-1.36-8.19-6.44-2.73.93,9.25,4.07,7S386.77,180,386.77,180Z"/><path id="_Path_191" data-name="&lt;Path&gt;" class="cls-3" d="M397.85,165s-3.13,18.47-6.55,19.31C391.3,184.27,399.62,188.14,397.85,165Z"/><polygon id="_Path_192" data-name="&lt;Path&gt;" class="cls-3" points="407.48 200.96 415.81 194.34 418.81 191.4 398.42 203.62 407.48 200.96"/><path id="_Path_193" data-name="&lt;Path&gt;" class="cls-3" d="M356.8,205.25s-10.59-31.07-11.94-30.9-15.7-9.25-17.06-11.19-1,5.9,14.5,14.09l-15,1.37L342,180.15s4.51,4.27,4.86,7.35-11.25-.35-11.25-.35.91,3.42,12.4,5L356.8,207"/><path id="_Path_194" data-name="&lt;Path&gt;" class="cls-8" d="M327.78,207.7s8.91,5.93,9.9-.77-1.66-9.09-4.89-12c0,0-1.1-6.67-4.27-8.23,0,0,8-8.37-3.71-14.48,0,0-7.9-14.4-16.4-3.29,0,0-2.93,7.62,1.74,10.4s5.21,5.29-1.55,6c0,0-3.87-3.26-5-1,0,0-8.27-5.63-10.05,3.23s3.89,11.83,7.69,10.29c0,0,3.64,4.42,6.65,5,0,0,4.48,8.89,11.3,4.42C319.17,207.2,327.47,212.7,327.78,207.7Z"/></g><g id="_Group_13" data-name="&lt;Group&gt;"><path id="_Path_195" data-name="&lt;Path&gt;" class="cls-10" d="M341.4,194s-3.62-4.76-6.71-4.37c0,0,2.06-6.35-6.2-7.54,0,0-4.13-15.49-19.61-2.38,0,0-13.93-14.9-21.67-5.27,0,0-13.94,2.49-9.81,12.41,0,0-14.45.8-13.42,9.14,0,0-7.74,1.19-5.16,11.51,0,0-8.77,4-8.77,11.12,0,0-12.39-7.55-18.06,0,0,0-22.71,3.18-18.07,22.63,0,0-6.19,6,4.13,11.12,0,0,2.58,9.13,8.77,9.53,0,0,2.59,7.94,17,4.76,0,0,4.64,6.75,8.77,9.53,0,0,0,9.53,4.13,11.92s8.26,7.94,14.45,7.94,8.26,9.92,22.71-4.77c0,0,12.38,7.15,22.19-7.14,0,0,12.9-.4,15-6.75,0,0,12.91-8,12.91-13.11,0,0,16-6.75,12.9-21,0,0,11.11-18.66.4-23,0,0,2.69-13.5-4.53-12.71C352.75,207.52,352.75,190.45,341.4,194Z"/><path id="_Path_196" data-name="&lt;Path&gt;" class="cls-11" d="M317.66,187.43s5.12-11.24-5.44-9.84c0,0-6.43,6.88-5.4,9.84C306.82,187.43,307.92,194.86,317.66,187.43Z"/><path id="_Path_197" data-name="&lt;Path&gt;" class="cls-11" d="M340.51,201.49s4.1-8.16-2.73-7.88-8.64,2.82-10.92,5.91c0,0-6.37,2-7.28,4.78,0,0-9.85-5.06-13.57,5.34,0,0-12.66,8.72,0,13.78,0,0,8.11,1.13,9.93-3.09s4.2-5.06,6.2.28c0,0-2.46,3.65,0,4.22,0,0-3.92,7.59,5.18,7.59s10.92-5.06,8.64-7.87c0,0,3.64-3.66,3.64-6.19,0,0,7.9-5.06,2.13-9.84C341.73,208.52,345.52,200.92,340.51,201.49Z"/><path id="_Path_198" data-name="&lt;Path&gt;" class="cls-3" d="M314.56,224.55s5-14.3,4.34-18.28a14.47,14.47,0,0,0-2.14,7.59s-6-10.3-5.75-10.4l-.26.1s2,9.44,4.11,11.43S314.56,224.55,314.56,224.55Z"/><path id="_Path_199" data-name="&lt;Path&gt;" class="cls-3" d="M332.11,218.36s-3.16,15.18-7.26,21.93c0,0-2.72-2.53-2-7.87,0,0-2.47,4.5,2,11C324.85,243.39,334.17,225.39,332.11,218.36Z"/><path id="_Path_200" data-name="&lt;Path&gt;" class="cls-11" d="M295.72,180.4s1.81-8.47-3.35-8l-5.16.53s-13.42,2.64-9.81,13.18c0,0-9.29,5.27-10.32,11.6,0,0-8.26,2.74-8.26,10.34,0,0-11.61,3.37-8.26,12.86,0,0-8.77-2.74-10.06-1.9s-6.71-.63-7.22,1.9a42.55,42.55,0,0,0-5.8.14c-.77.28-9.43,4.08-7.62,10.62s4.38,3.3,4.38-1c0,0,5.42,2.25,5.68-1.54,0,0,17,6.53,16.26-3.59,0,0,5.16-3.37,6.71-4.22s5.16,2.53,6.71-2.74c0,0,8.51-1.9,4.64,4.22,0,0-2.06,9.28,4.9,9.07s7.74-2.32,9-2.74,4.12-2.39,4.12,1.54,4.91,7.52,10.33,3.1c0,0,9-3.38,4.64-8.65,0,0,4.9-8.86-5.42-7.38,0,0-6.33,6.18-3.81-1.13,0,0,4.59-2.88,2.26-7.94,0,0,9.29,1.17,9.55-4.58,0,0,8.55-10,6.86-11.24,0,0,1.91-11-9.7-4.85C297,188.06,304.24,179.48,295.72,180.4Z"/><path id="_Path_201" data-name="&lt;Path&gt;" class="cls-10" d="M282.05,193.61h8.51s-2.32,3.37-4.26,4.29-7.09,5.56-5.8,3.66C282.32,198.87,285.4,194.72,282.05,193.61Z"/><path id="_Path_202" data-name="&lt;Path&gt;" class="cls-3" d="M294.41,213.81s-.66-12.28.63-14.68c0,0,.91,5.16,0,7.62,0,0,6.28-6.43,6.13-6.53s-.88,1.79-.88,1.79-3.86,4-4.14,5.74A42.76,42.76,0,0,1,294.41,213.81Z"/><polygon id="_Path_203" data-name="&lt;Path&gt;" class="cls-3" points="232.06 223.13 231.53 218.48 231.06 216.64 230.4 226.84 232.06 223.13"/><path id="_Path_204" data-name="&lt;Path&gt;" class="cls-3" d="M310.75,238s-3.16,6.12-2.64,8.65-2.58,7.8-4.39,2.32-10.44-22.07-9.48-27.27,1.74-5.1,1.74-5.1c-.38,8.28-.85,6.91-.52,7.91.78,2.32,7,14.72,7,14.72s4.4-5.09,4.26-6.85c0,0,.62-.49-3.76,8.58l2.58,4.85S308,236.15,310.75,238Z"/><path id="_Path_205" data-name="&lt;Path&gt;" class="cls-11" d="M324.45,247.89s-1.38-6.75-6.5-2.25.94,7.61,4.11,5.77S324.45,247.89,324.45,247.89Z"/><path id="_Path_206" data-name="&lt;Path&gt;" class="cls-3" d="M335.61,235.51s-3.16,15.21-6.6,15.9C329,251.41,337.4,254.61,335.61,235.51Z"/><polygon id="_Path_207" data-name="&lt;Path&gt;" class="cls-3" points="345.31 265.17 353.7 259.71 356.73 257.29 336.18 267.35 345.31 265.17"/><path id="_Path_208" data-name="&lt;Path&gt;" class="cls-3" d="M294.24,268.69s-10.67-25.58-12-25.44S266.39,235.63,265,234s-1,4.87,14.61,11.62l-15.13,1.12L279.37,248s4.54,3.52,4.9,6-11.34-.28-11.34-.28.91,2.81,12.5,4.08l8.81,12.23"/><path id="_Path_209" data-name="&lt;Path&gt;" class="cls-11" d="M265,270.71s9,4.89,10-.64-1.67-7.48-4.94-9.91c0,0-1.1-5.49-4.3-6.77,0,0,8-6.9-3.74-11.93,0,0-8-11.86-16.52-2.71,0,0-2.95,6.28,1.75,8.56s5.25,4.36-1.55,4.91c0,0-3.91-2.68-5.06-.83,0,0-8.34-4.63-10.13,2.66s3.92,9.75,7.74,8.48c0,0,3.67,3.63,6.71,4.13,0,0,4.51,7.33,11.38,3.64C256.32,270.3,264.69,274.83,265,270.71Z"/></g><g id="_Group_14" data-name="&lt;Group&gt;"><path id="_Path_210" data-name="&lt;Path&gt;" class="cls-1" d="M497.76,52.43s-2.69-4.34-5-4c0,0,1.53-5.78-4.61-6.87,0,0-3.08-14.11-14.6-2.17,0,0-10.38-13.57-16.14-4.8,0,0-10.38,2.27-7.3,11.31,0,0-10.76.72-10,8.32,0,0-5.77,1.09-3.85,10.49,0,0-6.53,3.62-6.53,10.13,0,0-9.22-6.87-13.45,0,0,0-16.91,2.89-13.45,20.62,0,0-4.61,5.42,3.08,10.12,0,0,1.92,8.32,6.53,8.69,0,0,1.92,7.23,12.68,4.34,0,0,3.46,6.15,6.53,8.68,0,0,0,8.68,3.08,10.85s6.14,7.23,10.75,7.23,6.15,9.05,16.91-4.34c0,0,9.22,6.51,16.52-6.51,0,0,9.61-.36,11.15-6.15,0,0,9.6-7.23,9.6-11.93,0,0,11.92-6.15,9.61-19.18,0,0,8.28-17,.3-21,0,0,2-12.3-3.37-11.58C506.22,64.73,506.22,49.18,497.76,52.43Z"/><path id="_Path_211" data-name="&lt;Path&gt;" class="cls-12" d="M480.09,46.43s3.81-10.24-4-9c0,0-4.79,6.27-4,9C472,46.43,472.84,53.19,480.09,46.43Z"/><path id="_Path_212" data-name="&lt;Path&gt;" class="cls-12" d="M497.11,59.23s3.05-7.43-2-7.17-6.43,2.56-8.13,5.38c0,0-4.74,1.79-5.42,4.36,0,0-7.33-4.62-10.1,4.86,0,0-9.43,7.94,0,12.55,0,0,6,1,7.39-2.81s3.12-4.61,4.61.25c0,0-1.82,3.33,0,3.85,0,0-2.91,6.91,3.86,6.91s8.13-4.61,6.44-7.17c0,0,2.71-3.33,2.71-5.64,0,0,5.88-4.61,1.58-9C498,65.64,500.83,58.72,497.11,59.23Z"/><path id="_Path_213" data-name="&lt;Path&gt;" class="cls-3" d="M481,61s1.91-12.43,1.91-14.67.76-7.62,1.53-7.88-.58,7.92-.77,11.28S481,61,481,61Z"/><polygon id="_Path_214" data-name="&lt;Path&gt;" class="cls-3" points="494.97 50.2 493.76 54.28 493.46 55.96 497.38 47.53 494.97 50.2"/><path id="_Path_215" data-name="&lt;Path&gt;" class="cls-3" d="M477.78,80.24s3.75-13,3.23-16.65a15.39,15.39,0,0,0-1.59,6.91S475,61.12,475.14,61l-.19.09s1.49,8.6,3.05,10.41S477.78,80.24,477.78,80.24Z"/><path id="_Path_216" data-name="&lt;Path&gt;" class="cls-3" d="M490.85,74.6s-2.35,13.84-5.4,20c0,0-2-2.3-1.52-7.17,0,0-1.84,4.1,1.52,10C485.45,97.4,492.38,81,490.85,74.6Z"/><path id="_Path_217" data-name="&lt;Path&gt;" class="cls-12" d="M463.76,40s1.34-7.71-2.5-7.24l-3.84.48s-10,2.41-7.3,12c0,0-6.92,4.81-7.69,10.57a10.42,10.42,0,0,0-6.15,9.41s-8.64,3.08-6.15,11.72c0,0-6.53-2.49-7.49-1.73s-5-.57-5.38,1.73a25.33,25.33,0,0,0-4.31.13c-.58.25-7,3.72-5.68,9.67s3.27,3,3.27-.9c0,0,4,2,4.22-1.4,0,0,12.68,6,12.11-3.27,0,0,3.84-3.07,5-3.84s3.85,2.3,5-2.5c0,0,6.34-1.73,3.46,3.84,0,0-1.54,8.46,3.65,8.26s5.76-2.11,6.72-2.49,3.08-2.18,3.08,1.4,3.65,6.86,7.68,2.82c0,0,6.73-3.07,3.46-7.87,0,0,3.65-8.07-4-6.73,0,0-4.71,5.64-2.83-1a6.3,6.3,0,0,0,1.68-7.24s6.92,1.07,7.11-4.17c0,0,6.37-9.09,5.1-10.24,0,0,1.43-10-7.21-4.42C464.72,47,470.1,39.19,463.76,40Z"/><path id="_Path_218" data-name="&lt;Path&gt;" class="cls-1" d="M453.57,52.05h6.34s-1.73,3.08-3.17,3.91-5.28,5.07-4.32,3.34C453.78,56.85,456.07,53.07,453.57,52.05Z"/><path id="_Path_219" data-name="&lt;Path&gt;" class="cls-3" d="M462.78,70.46s-.49-11.19.47-13.38c0,0,.68,4.71,0,7,0,0,4.67-5.86,4.56-6s-.65,1.63-.65,1.63-2.88,3.6-3.09,5.23A47,47,0,0,1,462.78,70.46Z"/><polygon id="_Path_220" data-name="&lt;Path&gt;" class="cls-3" points="416.36 78.95 415.96 74.71 415.62 73.03 415.12 82.32 416.36 78.95"/><path id="_Path_221" data-name="&lt;Path&gt;" class="cls-3" d="M475,92.54s-2.36,5.57-2,7.87-1.92,7.11-3.27,2.12-7.77-20.11-7-24.85S464,73,464,73c-.29,7.55-.63,6.3-.39,7.21.58,2.11,5.21,13.42,5.21,13.42S472,89,471.93,87.41c0,0,.47-.45-2.79,7.81l1.92,4.42S472.89,90.81,475,92.54Z"/><path id="_Path_222" data-name="&lt;Path&gt;" class="cls-12" d="M485.14,101.5s-1-6.15-4.83-2,.7,6.94,3.06,5.26S485.14,101.5,485.14,101.5Z"/><path id="_Path_223" data-name="&lt;Path&gt;" class="cls-3" d="M493.46,90.23s-2.36,13.85-4.92,14.48C488.54,104.71,494.78,107.62,493.46,90.23Z"/><polygon id="_Path_224" data-name="&lt;Path&gt;" class="cls-3" points="457.27 37.35 453.96 33.2 452.42 31.66 458.04 41.56 457.27 37.35"/><polygon id="_Path_225" data-name="&lt;Path&gt;" class="cls-3" points="500.7 117.25 506.91 112.23 509.14 110 493.92 119.3 500.7 117.25"/><path id="_Path_226" data-name="&lt;Path&gt;" class="cls-3" d="M462.66,120.46s-8-23.31-9-23.19-11.77-6.93-12.8-8.4-.78,4.43,10.88,10.58l-11.26,1,11.07,1.14s3.38,3.21,3.65,5.52-8.44-.26-8.44-.26.68,2.56,9.3,3.71l6.57,11.15"/><path id="_Path_227" data-name="&lt;Path&gt;" class="cls-12" d="M440.88,122.3s6.68,4.45,7.43-.59-1.24-6.81-3.67-9c0,0-.83-5-3.2-6.17,0,0,6-6.28-2.79-10.86,0,0-5.93-10.81-12.3-2.47,0,0-2.2,5.72,1.3,7.8s3.91,4-1.16,4.47c0,0-2.9-2.45-3.76-.76,0,0-6.21-4.22-7.54,2.43s2.92,8.88,5.76,7.72c0,0,2.73,3.31,5,3.77,0,0,3.37,6.67,8.48,3.31C434.42,121.92,440.65,126.05,440.88,122.3Z"/></g><g id="_Group_15" data-name="&lt;Group&gt;"><path id="_Path_228" data-name="&lt;Path&gt;" class="cls-10" d="M292,195.35s-2.77-4.47-5.14-4.1c0,0,1.58-5.95-4.74-7.07,0,0-3.17-14.52-15-2.23,0,0-10.68-14-16.61-4.94,0,0-10.67,2.33-7.51,11.64,0,0-11.07.74-10.28,8.56,0,0-5.93,1.11-3.95,10.79,0,0-6.73,3.72-6.73,10.42,0,0-9.49-7.07-13.84,0,0,0-17.39,3-13.83,21.22,0,0-4.75,5.58,3.16,10.42,0,0,2,8.56,6.72,8.93,0,0,2,7.45,13.05,4.47,0,0,3.56,6.33,6.72,8.93,0,0,0,8.94,3.16,11.17s6.33,7.45,11.08,7.45,6.32,9.3,17.39-4.47c0,0,9.49,6.7,17-6.7,0,0,9.88-.37,11.46-6.33,0,0,9.89-7.44,9.89-12.28,0,0,12.26-6.33,9.88-19.73,0,0,8.52-17.49.31-21.59,0,0,2.07-12.65-3.47-11.91C300.73,208,300.73,192,292,195.35Z"/><path id="_Path_229" data-name="&lt;Path&gt;" class="cls-11" d="M273.84,189.16s3.93-10.53-4.16-9.22c0,0-4.93,6.46-4.14,9.22C265.54,189.16,266.38,196.13,273.84,189.16Z"/><path id="_Path_230" data-name="&lt;Path&gt;" class="cls-11" d="M291.36,202.34s3.13-7.64-2.1-7.38-6.62,2.64-8.36,5.54c0,0-4.88,1.84-5.58,4.48,0,0-7.55-4.74-10.4,5,0,0-9.7,8.17,0,12.92,0,0,6.22,1.05,7.61-2.9s3.21-4.75,4.75.26c0,0-1.88,3.43,0,3.95,0,0-3,7.12,4,7.12s8.36-4.74,6.62-7.38c0,0,2.79-3.43,2.79-5.8,0,0,6-4.74,1.63-9.23C292.29,208.93,295.19,201.82,291.36,202.34Z"/><path id="_Path_231" data-name="&lt;Path&gt;" class="cls-3" d="M271.47,224s3.85-13.4,3.32-17.13a15.81,15.81,0,0,0-1.63,7.11s-4.6-9.66-4.41-9.75l-.19.09s1.52,8.85,3.14,10.72S271.47,224,271.47,224Z"/><path id="_Path_232" data-name="&lt;Path&gt;" class="cls-3" d="M284.91,218.16s-2.41,14.24-5.55,20.56c0,0-2.09-2.37-1.56-7.38,0,0-1.89,4.22,1.56,10.28C279.36,241.62,286.5,224.75,284.91,218.16Z"/><path id="_Path_233" data-name="&lt;Path&gt;" class="cls-11" d="M257,182.57s1.38-7.93-2.57-7.44l-4,.49S240.23,178.09,243,188c0,0-7.12,4.94-7.91,10.87a10.72,10.72,0,0,0-6.32,9.69s-8.9,3.16-6.33,12.06c0,0-6.72-2.57-7.71-1.78s-5.14-.59-5.54,1.78a26.88,26.88,0,0,0-4.44.13c-.59.26-7.22,3.82-5.84,10s3.36,3.1,3.36-.92c0,0,4.16,2.11,4.35-1.45,0,0,13,6.13,12.46-3.36,0,0,3.95-3.16,5.14-4s3.95,2.38,5.14-2.57c0,0,6.52-1.78,3.56,4,0,0-1.58,8.7,3.75,8.5s5.94-2.18,6.92-2.57,3.17-2.24,3.17,1.45,3.75,7.05,7.91,2.9c0,0,6.91-3.16,3.55-8.11,0,0,3.76-8.3-4.15-6.92,0,0-4.85,5.8-2.92-1a6.47,6.47,0,0,0,1.74-7.45s7.11,1.1,7.31-4.29c0,0,6.55-9.35,5.25-10.54,0,0,1.47-10.28-7.42-4.54C258,189.76,263.56,181.72,257,182.57Z"/><path id="_Path_234" data-name="&lt;Path&gt;" class="cls-10" d="M246.56,195h6.52s-1.78,3.16-3.26,4-5.44,5.21-4.45,3.43C246.77,199.89,249.13,196,246.56,195Z"/><path id="_Path_235" data-name="&lt;Path&gt;" class="cls-3" d="M256,213.9s-.5-11.51.48-13.77c0,0,.71,4.84,0,7.15,0,0,4.81-6,4.69-6.12s-.67,1.67-.67,1.67-3,3.71-3.18,5.38A46.38,46.38,0,0,1,256,213.9Z"/><polygon id="_Path_236" data-name="&lt;Path&gt;" class="cls-3" points="208.26 222.63 207.85 218.27 207.5 216.55 206.99 226.1 208.26 222.63"/><path id="_Path_237" data-name="&lt;Path&gt;" class="cls-3" d="M268.56,236.61s-2.43,5.74-2,8.11-2,7.31-3.36,2.17-8-20.69-7.27-25.56,1.34-4.78,1.34-4.78c-.3,7.76-.65,6.48-.4,7.41.59,2.17,5.35,13.81,5.35,13.81s3.37-4.78,3.26-6.43c0,0,.48-.46-2.88,8l2,4.55S266.43,234.83,268.56,236.61Z"/><path id="_Path_238" data-name="&lt;Path&gt;" class="cls-11" d="M279.05,245.84s-1.06-6.33-5-2.11.72,7.14,3.15,5.42S279.05,245.84,279.05,245.84Z"/><path id="_Path_239" data-name="&lt;Path&gt;" class="cls-3" d="M287.6,234.24s-2.42,14.26-5.06,14.91C282.54,249.15,289,252.14,287.6,234.24Z"/><polygon id="_Path_240" data-name="&lt;Path&gt;" class="cls-3" points="295.03 262.04 301.46 256.92 303.78 254.66 288.03 264.08 295.03 262.04"/><path id="_Path_241" data-name="&lt;Path&gt;" class="cls-3" d="M255.9,265.35s-8.17-24-9.22-23.86-12.11-7.14-13.17-8.64-.8,4.55,11.2,10.88l-11.59,1.05L244.51,246s3.48,3.31,3.75,5.68-8.69-.27-8.69-.27.7,2.64,9.58,3.83l6.75,11.46"/><path id="_Path_242" data-name="&lt;Path&gt;" class="cls-11" d="M233.5,267.24s6.87,4.58,7.64-.6-1.28-7-3.78-9.29c0,0-.84-5.15-3.29-6.35,0,0,6.14-6.47-2.87-11.18,0,0-6.1-11.12-12.66-2.55,0,0-2.26,5.89,1.35,8s4,4.09-1.2,4.6c0,0-3-2.51-3.87-.78,0,0-6.39-4.34-7.76,2.5s3,9.13,5.93,7.94c0,0,2.81,3.41,5.14,3.88,0,0,3.46,6.87,8.72,3.41C226.85,266.85,233.26,271.1,233.5,267.24Z"/></g><g id="_Group_16" data-name="&lt;Group&gt;"><path id="_Path_243" data-name="&lt;Path&gt;" class="cls-7" d="M500.53,103.3S497,97.52,493.87,98c0,0,2.05-7.72-6.14-9.16,0,0-4.1-18.8-19.46-2.89,0,0-13.83-18.09-21.51-6.4,0,0-13.83,3-9.73,15.07,0,0-14.34,1-13.32,11.09,0,0-7.68,1.45-5.12,14,0,0-8.71,4.82-8.71,13.5,0,0-12.29-9.16-17.92,0,0,0-22.54,3.86-17.93,27.48,0,0-6.14,7.23,4.1,13.5,0,0,2.56,11.09,8.71,11.57,0,0,2.56,9.64,16.9,5.79,0,0,4.61,8.19,8.7,11.57,0,0,0,11.57,4.1,14.46s8.19,9.64,14.34,9.64,8.19,12.06,22.53-5.78c0,0,12.3,8.68,22-8.68,0,0,12.8-.48,14.85-8.2,0,0,12.8-9.64,12.8-15.91,0,0,15.88-8.19,12.81-25.55,0,0,11-22.66.39-28,0,0,2.68-16.39-4.49-15.43C511.8,119.69,511.8,99,500.53,103.3Z"/><path id="_Path_244" data-name="&lt;Path&gt;" class="cls-8" d="M477,95.29s5.08-13.64-5.39-11.94c0,0-6.39,8.36-5.36,11.94C466.22,95.29,467.31,104.32,477,95.29Z"/><path id="_Path_245" data-name="&lt;Path&gt;" class="cls-8" d="M499.66,112.37s4.06-9.91-2.71-9.56-8.58,3.41-10.84,7.17c0,0-6.32,2.39-7.22,5.8,0,0-9.78-6.15-13.47,6.49,0,0-12.56,10.58,0,16.73,0,0,8.05,1.36,9.85-3.76s4.17-6.14,6.15.34c0,0-2.44,4.44,0,5.13,0,0-3.89,9.21,5.14,9.21s10.84-6.14,8.58-9.56c0,0,3.61-4.43,3.61-7.51,0,0,7.84-6.14,2.12-11.95C500.87,120.9,504.62,111.68,499.66,112.37Z"/><path id="_Path_246" data-name="&lt;Path&gt;" class="cls-3" d="M473.9,140.36s5-17.35,4.3-22.19a20.53,20.53,0,0,0-2.12,9.22s-6-12.51-5.7-12.63l-.26.12s2,11.46,4.08,13.88S473.9,140.36,473.9,140.36Z"/><path id="_Path_247" data-name="&lt;Path&gt;" class="cls-9" d="M491.31,132.85s-3.13,18.44-7.2,26.63c0,0-2.7-3.07-2-9.56,0,0-2.44,5.47,2,13.32C484.11,163.24,493.36,141.39,491.31,132.85Z"/><path id="_Path_248" data-name="&lt;Path&gt;" class="cls-8" d="M455.21,86.76s1.79-10.28-3.33-9.65l-5.12.64s-13.32,3.2-9.73,16c0,0-9.22,6.4-10.25,14.08,0,0-8.19,3.33-8.19,12.55,0,0-11.53,4.1-8.2,15.62,0,0-8.7-3.33-10-2.3s-6.66-.77-7.17,2.3c0,0-5-.17-5.75.17s-9.36,4.95-7.57,12.89,4.35,4,4.35-1.19c0,0,5.38,2.73,5.64-1.88,0,0,16.9,7.94,16.13-4.36,0,0,5.12-4.09,6.66-5.12s5.12,3.08,6.66-3.33c0,0,8.45-2.3,4.61,5.13,0,0-2.05,11.26,4.86,11s7.68-2.82,9-3.33,4.1-2.9,4.1,1.88,4.87,9.13,10.24,3.75c0,0,9-4.1,4.61-10.5,0,0,4.87-10.75-5.37-9,0,0-6.29,7.51-3.79-1.37a8.38,8.38,0,0,0,2.25-9.64s9.22,1.42,9.47-5.56c0,0,8.49-12.11,6.81-13.65,0,0,1.9-13.31-9.62-5.89C456.49,96.06,463.66,85.65,455.21,86.76Z"/><path id="_Path_249" data-name="&lt;Path&gt;" class="cls-7" d="M441.63,102.8h8.45s-2.3,4.09-4.22,5.21-7,6.75-5.76,4.44C441.91,109.19,445,104.15,441.63,102.8Z"/><path id="_Path_250" data-name="&lt;Path&gt;" class="cls-3" d="M453.91,127.33s-.66-14.91.62-17.83c0,0,.91,6.27,0,9.26,0,0,6.24-7.81,6.08-7.93s-.87,2.17-.87,2.17-3.83,4.8-4.11,7A62,62,0,0,1,453.91,127.33Z"/><polygon id="_Path_251" data-name="&lt;Path&gt;" class="cls-3" points="392.03 138.65 391.5 133 391.04 130.76 390.39 143.14 392.03 138.65"/><path id="_Path_252" data-name="&lt;Path&gt;" class="cls-3" d="M470.12,156.75s-3.13,7.43-2.62,10.5-2.56,9.48-4.36,2.82-10.36-26.8-9.4-33.12,1.72-6.19,1.72-6.19c-.38,10.06-.84,8.4-.51,9.6.77,2.82,6.93,17.89,6.93,17.89s4.37-6.19,4.23-8.33c0,0,.62-.59-3.73,10.42l2.56,5.89S467.37,154.45,470.12,156.75Z"/><path id="_Path_253" data-name="&lt;Path&gt;" class="cls-8" d="M483.71,168.7s-1.36-8.19-6.44-2.73.93,9.25,4.07,7S483.71,168.7,483.71,168.7Z"/><path id="_Path_254" data-name="&lt;Path&gt;" class="cls-3" d="M494.79,153.68s-3.14,18.47-6.55,19.3C488.24,173,496.56,176.86,494.79,153.68Z"/><polygon id="_Path_255" data-name="&lt;Path&gt;" class="cls-3" points="504.41 189.68 512.75 183.06 515.75 180.12 495.35 192.34 504.41 189.68"/><path id="_Path_256" data-name="&lt;Path&gt;" class="cls-3" d="M453.74,194s-10.59-31.07-11.95-30.9-15.69-9.25-17.06-11.2-1,5.91,14.51,14.1l-15,1.37L439,168.87s4.51,4.27,4.86,7.34-11.25-.34-11.25-.34.9,3.42,12.4,4.95l8.75,14.86"/><path id="_Path_257" data-name="&lt;Path&gt;" class="cls-8" d="M424.71,196.42s8.91,5.93,9.91-.78-1.66-9.08-4.9-12c0,0-1.09-6.67-4.26-8.23,0,0,8-8.37-3.71-14.48,0,0-7.91-14.4-16.41-3.29,0,0-2.92,7.62,1.75,10.4s5.2,5.29-1.55,6c0,0-3.87-3.27-5-1,0,0-8.27-5.63-10,3.23s3.89,11.83,7.68,10.29c0,0,3.64,4.41,6.66,5,0,0,4.48,8.89,11.3,4.42C416.11,195.92,424.41,201.42,424.71,196.42Z"/></g><g id="_Group_17" data-name="&lt;Group&gt;"><path id="_Path_258" data-name="&lt;Path&gt;" class="cls-1" d="M322.5,260.16s-3.35-5.42-6.23-5c0,0,1.92-7.23-5.75-8.58,0,0-3.84-17.61-18.23-2.71,0,0-12.94-16.93-20.14-6,0,0-12.94,2.82-9.11,14.11,0,0-13.42.9-12.46,10.38,0,0-7.2,1.35-4.8,13.09,0,0-8.15,4.51-8.15,12.64,0,0-11.51-8.58-16.79,0,0,0-21.09,3.61-16.78,25.73,0,0-5.75,6.77,3.84,12.64,0,0,2.4,10.38,8.15,10.83,0,0,2.4,9,15.82,5.42,0,0,4.32,7.67,8.16,10.83,0,0,0,10.83,3.83,13.54s7.67,9,13.43,9,7.67,11.29,21.1-5.42c0,0,11.51,8.13,20.62-8.12,0,0,12-.45,13.9-7.67,0,0,12-9,12-14.9,0,0,14.87-7.67,12-23.93,0,0,10.33-21.21.37-26.18,0,0,2.51-15.34-4.21-14.44C333.05,275.51,333.05,256.1,322.5,260.16Z"/><path id="_Path_259" data-name="&lt;Path&gt;" class="cls-2" d="M300.45,252.66s4.75-12.77-5.06-11.18c0,0-6,7.83-5,11.18C290.38,252.66,291.4,261.11,300.45,252.66Z"/><path id="_Path_260" data-name="&lt;Path&gt;" class="cls-2" d="M321.69,268.65s3.8-9.27-2.54-8.95-8,3.19-10.15,6.71c0,0-5.92,2.24-6.76,5.44,0,0-9.16-5.76-12.61,6.07,0,0-11.77,9.91,0,15.66,0,0,7.53,1.28,9.23-3.51s3.89-5.76,5.75.32c0,0-2.28,4.15,0,4.79,0,0-3.64,8.63,4.81,8.63s10.15-5.75,8-8.95c0,0,3.38-4.15,3.38-7,0,0,7.34-5.75,2-11.19C322.82,276.64,326.34,268,321.69,268.65Z"/><path id="_Path_261" data-name="&lt;Path&gt;" class="cls-3" d="M301.58,270.89S304,255.38,304,252.58s1-9.51,1.92-9.83-.73,9.88-1,14.07S301.58,270.89,301.58,270.89Z"/><polygon id="_Path_262" data-name="&lt;Path&gt;" class="cls-3" points="319.02 257.37 317.51 262.46 317.13 264.57 322.02 254.04 319.02 257.37"/><path id="_Path_263" data-name="&lt;Path&gt;" class="cls-3" d="M297.57,294.86s4.67-16.25,4-20.78a19.19,19.19,0,0,0-2,8.63S294,271,294.27,270.89s-.24.11-.24.11,1.86,10.73,3.82,13S297.57,294.86,297.57,294.86Z"/><path id="_Path_264" data-name="&lt;Path&gt;" class="cls-3" d="M313.87,287.83s-2.93,17.26-6.74,24.93c0,0-2.53-2.87-1.89-8.95,0,0-2.29,5.12,1.89,12.47C307.13,316.28,315.79,295.82,313.87,287.83Z"/><path id="_Path_265" data-name="&lt;Path&gt;" class="cls-2" d="M280.07,244.67s1.67-9.62-3.12-9l-4.8.6s-12.46,3-9.11,15c0,0-8.63,6-9.59,13.18,0,0-7.67,3.12-7.67,11.75,0,0-10.79,3.84-7.67,14.63,0,0-8.15-3.12-9.35-2.16s-6.24-.72-6.72,2.16c0,0-4.67-.16-5.38.15s-8.76,4.64-7.08,12.07,4.07,3.76,4.07-1.11c0,0,5,2.55,5.28-1.76,0,0,15.82,7.43,15.1-4.08,0,0,4.8-3.83,6.24-4.79s4.79,2.87,6.23-3.12c0,0,7.91-2.16,4.32,4.79,0,0-1.92,10.55,4.55,10.31s7.19-2.63,8.39-3.11,3.84-2.72,3.84,1.76,4.55,8.55,9.59,3.51c0,0,8.39-3.83,4.31-9.83,0,0,4.56-10.07-5-8.39,0,0-5.88,7-3.54-1.28a7.85,7.85,0,0,0,2.1-9s8.63,1.34,8.87-5.21c0,0,8-11.33,6.37-12.77,0,0,1.78-12.47-9-5.52C281.26,253.38,288,243.63,280.07,244.67Z"/><path id="_Path_266" data-name="&lt;Path&gt;" class="cls-1" d="M267.36,259.69h7.91s-2.16,3.83-4,4.88-6.59,6.32-5.39,4.16C267.62,265.68,270.48,261,267.36,259.69Z"/><path id="_Path_267" data-name="&lt;Path&gt;" class="cls-3" d="M278.85,282.66s-.61-14,.58-16.7c0,0,.85,5.87,0,8.67,0,0,5.83-7.31,5.69-7.42s-.82,2-.82,2-3.58,4.5-3.84,6.52A57.88,57.88,0,0,1,278.85,282.66Z"/><polygon id="_Path_268" data-name="&lt;Path&gt;" class="cls-3" points="220.92 293.25 220.42 287.96 219.99 285.87 219.37 297.46 220.92 293.25"/><path id="_Path_269" data-name="&lt;Path&gt;" class="cls-3" d="M294,310.21s-2.93,7-2.46,9.83-2.39,8.87-4.07,2.64-9.7-25.1-8.81-31,1.62-5.8,1.62-5.8c-.36,9.42-.79,7.86-.48,9,.72,2.64,6.49,16.75,6.49,16.75s4.09-5.8,3.95-7.8c0,0,.59-.56-3.49,9.75l2.4,5.52S291.46,308.05,294,310.21Z"/><path id="_Path_270" data-name="&lt;Path&gt;" class="cls-2" d="M306.76,321.4s-1.28-7.68-6-2.56.88,8.66,3.82,6.57S306.76,321.4,306.76,321.4Z"/><path id="_Path_271" data-name="&lt;Path&gt;" class="cls-3" d="M317.13,307.33s-2.94,17.29-6.13,18.08C311,325.41,318.79,329,317.13,307.33Z"/><polygon id="_Path_272" data-name="&lt;Path&gt;" class="cls-3" points="271.97 241.35 267.84 236.16 265.92 234.24 272.93 246.59 271.97 241.35"/><polygon id="_Path_273" data-name="&lt;Path&gt;" class="cls-3" points="326.14 341.04 333.94 334.84 336.75 332.09 317.66 343.52 326.14 341.04"/><path id="_Path_274" data-name="&lt;Path&gt;" class="cls-3" d="M278.69,345.05s-9.92-29.09-11.18-28.93-14.7-8.66-16-10.48-1,5.53,13.58,13.2l-14.06,1.28,13.82,1.43s4.22,4,4.55,6.88-10.53-.32-10.53-.32.85,3.2,11.61,4.64l8.19,13.9"/><path id="_Path_275" data-name="&lt;Path&gt;" class="cls-2" d="M251.52,347.35s8.34,5.55,9.27-.73-1.55-8.5-4.58-11.27c0,0-1-6.24-4-7.7,0,0,7.44-7.84-3.47-13.56,0,0-7.4-13.48-15.36-3.08,0,0-2.74,7.14,1.63,9.74s4.88,4.95-1.45,5.57c0,0-3.62-3.05-4.7-.94,0,0-7.74-5.27-9.41,3s3.65,11.08,7.2,9.64c0,0,3.41,4.14,6.23,4.7,0,0,4.19,8.33,10.58,4.14C243.46,346.88,251.23,352,251.52,347.35Z"/></g><g id="_Group_18" data-name="&lt;Group&gt;"><path id="_Path_276" data-name="&lt;Path&gt;" class="cls-1" d="M243.49,358.15s-2.69-4.34-5-4c0,0,1.54-5.79-4.61-6.87,0,0-3.08-14.11-14.6-2.17,0,0-10.38-13.57-16.14-4.8,0,0-10.38,2.26-7.3,11.31,0,0-10.76.72-10,8.32,0,0-5.77,1.08-3.84,10.49,0,0-6.54,3.61-6.54,10.12,0,0-9.22-6.87-13.45,0,0,0-16.9,2.9-13.44,20.62,0,0-4.62,5.43,3.07,10.13,0,0,1.92,8.32,6.53,8.68,0,0,1.92,7.24,12.68,4.34,0,0,3.46,6.15,6.53,8.68,0,0,0,8.68,3.08,10.85s6.15,7.24,10.76,7.24,6.15,9,16.9-4.34c0,0,9.23,6.51,16.53-6.51,0,0,9.6-.36,11.14-6.15,0,0,9.61-7.24,9.61-11.94,0,0,11.91-6.15,9.6-19.17,0,0,8.28-17,.3-21,0,0,2-12.3-3.37-11.57C251.94,370.45,251.94,354.89,243.49,358.15Z"/><path id="_Path_277" data-name="&lt;Path&gt;" class="cls-12" d="M225.81,352.14s3.81-10.23-4.05-9c0,0-4.79,6.27-4,9C217.74,352.14,218.56,358.91,225.81,352.14Z"/><path id="_Path_278" data-name="&lt;Path&gt;" class="cls-12" d="M242.83,365s3-7.43-2-7.17-6.44,2.56-8.13,5.38c0,0-4.75,1.79-5.42,4.35,0,0-7.34-4.61-10.11,4.87,0,0-9.43,7.94,0,12.55,0,0,6,1,7.4-2.82s3.12-4.61,4.61.26c0,0-1.83,3.33,0,3.84,0,0-2.92,6.92,3.85,6.92s8.14-4.61,6.44-7.17c0,0,2.71-3.34,2.71-5.64,0,0,5.88-4.61,1.59-9C243.74,371.35,246.56,364.44,242.83,365Z"/><path id="_Path_279" data-name="&lt;Path&gt;" class="cls-3" d="M226.72,366.74s1.91-12.43,1.91-14.66.77-7.62,1.53-7.88-.58,7.91-.76,11.27S226.72,366.74,226.72,366.74Z"/><polygon id="_Path_280" data-name="&lt;Path&gt;" class="cls-3" points="240.69 355.91 239.48 360 239.18 361.68 243.1 353.24 240.69 355.91"/><path id="_Path_281" data-name="&lt;Path&gt;" class="cls-3" d="M223.5,386s3.75-13,3.23-16.66a15.45,15.45,0,0,0-1.59,6.92s-4.47-9.39-4.28-9.48l-.19.09s1.49,8.6,3.06,10.42S223.5,386,223.5,386Z"/><path id="_Path_282" data-name="&lt;Path&gt;" class="cls-3" d="M236.57,380.32s-2.35,13.83-5.4,20c0,0-2-2.3-1.52-7.17,0,0-1.83,4.1,1.52,10C231.17,403.12,238.11,386.72,236.57,380.32Z"/><path id="_Path_283" data-name="&lt;Path&gt;" class="cls-12" d="M209.48,345.74s1.34-7.72-2.5-7.24l-3.84.48s-10,2.4-7.3,12c0,0-6.92,4.8-7.69,10.57A10.4,10.4,0,0,0,182,371s-8.65,3.07-6.15,11.72c0,0-6.54-2.5-7.5-1.73s-5-.58-5.38,1.73a26.26,26.26,0,0,0-4.31.12c-.57.26-7,3.72-5.68,9.68s3.27,3,3.27-.9c0,0,4,2.05,4.23-1.41,0,0,12.68,6,12.1-3.26,0,0,3.84-3.08,5-3.85s3.84,2.31,5-2.49c0,0,6.34-1.73,3.46,3.84,0,0-1.54,8.45,3.65,8.26s5.76-2.11,6.72-2.5,3.08-2.18,3.08,1.41,3.65,6.85,7.68,2.82c0,0,6.73-3.08,3.46-7.88,0,0,3.65-8.07-4-6.72,0,0-4.72,5.63-2.84-1a6.28,6.28,0,0,0,1.68-7.23s6.92,1.07,7.11-4.18c0,0,6.37-9.08,5.11-10.23,0,0,1.43-10-7.22-4.42C210.44,352.72,215.82,344.9,209.48,345.74Z"/><path id="_Path_284" data-name="&lt;Path&gt;" class="cls-1" d="M199.3,357.77h6.34s-1.73,3.07-3.17,3.91-5.29,5.06-4.33,3.33C199.5,362.57,201.79,358.79,199.3,357.77Z"/><path id="_Path_285" data-name="&lt;Path&gt;" class="cls-3" d="M208.5,376.17S208,365,209,362.8c0,0,.68,4.7,0,6.95,0,0,4.68-5.86,4.56-5.95s-.65,1.63-.65,1.63-2.87,3.6-3.08,5.22A45.7,45.7,0,0,1,208.5,376.17Z"/><polygon id="_Path_286" data-name="&lt;Path&gt;" class="cls-3" points="162.08 384.67 161.68 380.43 161.34 378.75 160.84 388.04 162.08 384.67"/><path id="_Path_287" data-name="&lt;Path&gt;" class="cls-3" d="M220.67,398.25s-2.35,5.57-2,7.88-1.92,7.11-3.27,2.11-7.77-20.1-7.05-24.84,1.29-4.65,1.29-4.65c-.28,7.55-.63,6.3-.38,7.21.57,2.11,5.2,13.41,5.2,13.41s3.28-4.64,3.17-6.24c0,0,.46-.45-2.8,7.81l1.92,4.42S218.61,396.52,220.67,398.25Z"/><path id="_Path_288" data-name="&lt;Path&gt;" class="cls-12" d="M230.87,407.22s-1-6.15-4.84-2.05.7,6.94,3.06,5.26S230.87,407.22,230.87,407.22Z"/><path id="_Path_289" data-name="&lt;Path&gt;" class="cls-3" d="M239.18,396s-2.36,13.85-4.92,14.48C234.26,410.43,240.51,413.34,239.18,396Z"/><polygon id="_Path_290" data-name="&lt;Path&gt;" class="cls-3" points="246.42 422.96 252.63 417.94 254.86 415.72 239.64 425.01 246.42 422.96"/><path id="_Path_291" data-name="&lt;Path&gt;" class="cls-3" d="M208.38,426.17s-7.95-23.31-9-23.18-11.78-6.94-12.8-8.4-.78,4.43,10.88,10.58l-11.27,1,11.07,1.15s3.39,3.21,3.65,5.51-8.44-.25-8.44-.25.68,2.56,9.3,3.71l6.57,11.14"/><path id="_Path_292" data-name="&lt;Path&gt;" class="cls-12" d="M186.6,428s6.68,4.45,7.43-.58-1.24-6.81-3.67-9c0,0-.82-5-3.2-6.17,0,0,6-6.29-2.79-10.87,0,0-5.93-10.8-12.3-2.47,0,0-2.2,5.72,1.31,7.81s3.9,4-1.16,4.47c0,0-2.91-2.45-3.77-.76,0,0-6.21-4.22-7.54,2.42s2.92,8.88,5.76,7.72c0,0,2.74,3.32,5,3.77,0,0,3.36,6.67,8.47,3.32C180.14,427.64,186.37,431.77,186.6,428Z"/></g></g><g id="CIRCLE_BACKS" data-name="CIRCLE BACKS"><circle class="cls-13" cx="350.31" cy="258.5" r="99.7"/><circle class="cls-14" cx="350.23" cy="257.29" r="113.75"/></g><g id="LOGO"><g id="Logo_-_Text" data-name="Logo - Text"><polygon id="V" class="cls-15" points="297.43 288.8 304.61 288.8 310.22 305.67 316.04 288.8 322.97 288.8 312.92 313.24 307.8 313.24 297.43 288.8"/><polygon id="E" class="cls-15" points="338.25 288.8 323.26 288.8 323.26 313.24 338.25 313.24 338.25 307.87 329.68 307.87 329.68 303.56 338.25 303.56 338.25 298.54 329.65 298.54 329.65 294.14 338.25 294.14 338.25 288.8"/><polygon id="H" class="cls-15" points="340.11 288.8 346.7 288.8 346.7 298.22 355.73 298.22 355.73 288.8 362.44 288.8 362.44 313.24 355.86 313.24 355.86 303.3 346.7 303.3 346.7 313.24 340.11 313.24 340.11 288.8"/><rect id="I" class="cls-15" x="364.43" y="288.79" width="6.78" height="24.45"/><polygon id="K" class="cls-15" points="373.13 288.8 379.75 288.8 379.75 299.75 387.44 288.8 395.07 288.8 386.2 300.69 395.43 313.24 387.12 313.24 379.68 302.32 379.68 313.24 373.13 313.24 373.13 288.8"/><polygon id="L" class="cls-15" points="395.43 288.8 402.17 288.8 402.17 307.47 410.58 307.47 410.58 313.24 395.43 313.24 395.43 288.8"/></g><g id="Logo_-_Graphic" data-name="Logo - Graphic"><path id="logo-_outside" data-name="logo- outside" class="cls-16" d="M389.75,256.47s-.08-44.54-.09-47c0-1.49-.4-3.46-2.28-6.77-2.72-4.8-5.85-5.65-7.72-6-1.15-.19-9.08-.95-9.08-.95l-29.14-3.31c-12.46-1.77-15.58,0-19.31,3.42a12.77,12.77,0,0,0-3.82,8.69s-.05,56.61,0,57.72c.1,2.58,1.09,5.57,4.41,9.08,4.17,4.41,12,3.3,12,3.3s43.48-4.66,44.43-4.94a13.51,13.51,0,0,0,8.14-5.45A13.36,13.36,0,0,0,389.75,256.47Zm-6.49-4.42s.56,5.57-1.75,8.89c-1.75,2.51-7.39,2.67-8.46,2.74-.79.05-34.71,4-34.71,4s-7.09,1.51-10.42-1-3.1-9.24-3.06-10.28c0-.85-.09-44.5,0-45.91s-.12-7.48,2-9.76c2.79-2.93,6.2-2.46,17.75-1l23,2.57s6.23.59,7.29.71c2.34.26,4.5.21,6.53,2.91,1.84,2.25,1.71,8.74,1.71,8.74Z"/><path id="logo-inner" class="cls-16" d="M367.3,210.86c-4.06,0-6,2.9-6,6.69a6.27,6.27,0,0,0,3,5.71c.22,1,.2,5.23-2.44,7.53-3.54,3.08-11.05,4.8-12.08,5.93V218.21A6.47,6.47,0,0,0,353,212c-.06-3.39-2.29-7.32-7.11-7.32-5,0-6.29,4.78-6.29,6.64a7.39,7.39,0,0,0,3.46,6.61s.17,30.69.17,30.69a7.71,7.71,0,0,0-3.61,7c.18,4.14,3.24,6.58,6.26,6.58,3.73,0,6.95-2.69,7.08-7.22s-2.81-6.33-3.21-6.53c0,0-.28-2.79,1.12-4.19s7.58-3.76,8.09-3.95a20.72,20.72,0,0,0,8-5.81c2.24-2.8,3.06-6.53,3.18-10.74a6.44,6.44,0,0,0,2.91-5.69C373.05,214.91,371,210.89,367.3,210.86Zm-21.13,47.46c-2.06,0-3.06-1.5-3.06-3.34a3.48,3.48,0,0,1,3.38-3.75c2,0,3.25,1.82,3.17,3.87A3.46,3.46,0,0,1,346.17,258.32Zm.32-43c-2.26,0-3.36-1.71-3.36-3.63a3.15,3.15,0,0,1,3.36-3.46,3.53,3.53,0,0,1,3.23,3.47C349.72,213.57,348.84,215.29,346.49,215.29Zm20.8,5.56a3.36,3.36,0,0,1-3-3.23,3.15,3.15,0,0,1,3-3.37c2,0,2.88,2.05,2.8,3.43C370,219.49,369.1,220.85,367.29,220.85Z"/></g></g><g id="Layer_8" data-name="Layer 8"><text class="cls-17" transform="translate(370.83 372.12) rotate(-12.61)">L</text><text class="cls-17" transform="translate(387.43 367.99) rotate(-22.21)">O</text><text class="cls-17" transform="matrix(0.84, -0.54, 0.54, 0.84, 407.47, 359.06)">N</text><text class="cls-17" transform="translate(425.25 346.75) rotate(-43.33)">D</text><text class="cls-17" transform="matrix(0.59, -0.81, 0.81, 0.59, 440.19, 331.79)">O</text><text class="cls-17" transform="translate(452.54 313.68) rotate(-64.64)">N</text></g></g></svg>